<svg width="142" height="74" viewBox="0 0 142 74" fill="none" xmlns="http://www.w3.org/2000/svg">
<path d="M10.1245 50.7921C11.1446 49.7884 12.0351 49.1632 12.7961 48.9163L13.1766 48.7929C13.6839 48.6284 14.1936 48.6874 14.7058 48.9698C15.2179 49.2522 15.5521 49.6344 15.7084 50.1164C15.8071 50.4208 15.8431 50.6614 15.8164 50.8383C15.7814 50.9898 15.645 51.1742 15.4071 51.3916C15.1521 51.6425 14.8343 51.8296 14.4539 51.953C14.3017 52.0024 14.1834 52.0267 14.0991 52.0261C14.0483 52.0425 13.9849 52.0631 13.9088 52.0878C13.8245 52.0871 13.7697 52.0908 13.7443 52.0991C13.4653 52.1896 13.2277 52.3647 13.0317 52.6246C12.8184 52.918 12.5596 53.1141 12.2553 53.2128C12.0016 53.2951 11.7072 53.727 11.3719 54.5085C11.243 54.8026 11.0669 55.2102 10.8434 55.7312C10.637 56.2187 10.4694 56.6095 10.3405 56.9036C10.237 57.1894 10.1074 57.5679 9.95182 58.0389C9.82156 58.5016 9.72902 58.9942 9.67418 59.5166C9.50486 60.6368 9.46956 61.3491 9.56829 61.6535C9.6341 61.8564 9.75854 62.1104 9.94159 62.4155C10.4482 63.3726 10.9789 63.9714 11.5335 64.212C12.0799 64.4273 13.0788 64.4818 14.5301 64.3755C15.1882 64.3302 16.5446 63.9744 18.5993 63.308C20.6285 62.6498 21.9482 62.1377 22.5584 61.7716C23.0328 61.5056 23.2827 61.3685 23.3081 61.3603C23.511 61.2944 23.7424 61.3596 24.0022 61.5556C24.321 61.7606 24.5174 61.9773 24.5914 62.2056C24.7066 62.5607 24.5836 63.1753 24.2223 64.0494C23.8267 64.9907 23.6536 65.5374 23.703 65.6896C23.7935 65.9686 22.9129 66.4084 21.0612 67.009C20.6046 67.1571 20.2834 67.2473 20.0976 67.2795C19.4388 67.4091 18.467 67.6542 17.1823 68.0148C14.5449 68.7861 12.4502 68.6805 10.898 67.6981C10.68 67.5446 10.1178 67.1943 9.21151 66.6472C8.8084 66.4415 8.57804 66.2499 8.52046 66.0723C8.46287 65.8948 8.23765 65.5894 7.84482 65.1561C7.55208 64.8586 7.32344 64.4561 7.15889 63.9488C7.10953 63.7966 7.01972 63.4333 6.88945 62.8588C6.52197 61.38 6.34097 60.3033 6.34644 59.6287C6.35192 58.9541 6.51884 58.1291 6.84722 57.1535C7.2366 55.9339 7.41896 55.286 7.39428 55.2099C7.35314 55.0831 7.55846 54.7221 8.01024 54.1271C8.42843 53.5148 8.64301 53.0528 8.65397 52.7408C8.63957 52.4371 9.12974 51.7875 10.1245 50.7921ZM19.3445 37.0366C19.4652 36.7171 19.7665 36.4792 20.2484 36.3229C20.7304 36.1666 21.2061 36.2505 21.6758 36.5748C22.1872 36.9416 22.6791 37.6371 23.1515 38.6613C23.641 39.6519 24.4263 41.5979 25.5075 44.4992C26.8608 48.1533 27.9324 51.1978 28.7222 53.633C30.0221 57.6408 30.8627 61.0967 31.2439 64.0007C31.3782 65.1066 31.3052 65.789 31.0249 66.0482C30.7445 66.3073 30.4901 66.4739 30.2618 66.548C29.8813 66.6714 29.4316 66.4949 28.9126 66.0184C28.4437 65.6098 28.1105 65.1011 27.913 64.4923C27.8801 64.3909 27.7081 63.7739 27.3968 62.6413C26.9224 60.8328 26.6954 59.7009 26.716 59.2457C26.7461 58.6472 26.1195 56.3694 24.8361 52.4124C22.8204 46.1977 21.3721 42.2941 20.4912 40.7016C19.9591 39.7528 19.6068 39.012 19.434 38.4793C19.2201 37.8198 19.1902 37.3389 19.3445 37.0366ZM27.5147 37.8349C27.7354 37.6511 27.9918 37.2316 28.2838 36.5762C28.5759 35.9208 28.8868 35.5396 29.2165 35.4326C29.6731 35.2845 30.2031 35.4491 30.8064 35.9262C31.435 36.3951 31.8522 36.9467 32.0579 37.5808C32.1319 37.8091 32.1638 38.037 32.1535 38.2647C32.1405 38.8296 31.9417 39.4267 31.5571 40.056C31.1725 40.6854 30.7303 41.1372 30.2306 41.4114C29.9426 41.5609 29.7479 41.6521 29.6465 41.685C29.0377 41.8824 28.4724 41.9116 27.9507 41.7724C27.4461 41.5997 27.1239 41.2977 26.9841 40.8664C26.9347 40.7142 26.9104 40.596 26.911 40.5117C26.9069 39.9804 26.9662 39.4285 27.0889 38.856C27.2116 38.2836 27.3535 37.9432 27.5147 37.8349ZM29.8337 43.5586C30.149 43.148 30.3574 42.9262 30.4589 42.8933C30.535 42.8686 30.8301 42.871 31.3443 42.9005C31.7741 42.9293 32.0892 43.0794 32.2893 43.3509C32.5149 43.6141 32.9095 44.3552 33.473 45.5741C35.6017 50.3223 37.0734 53.9521 37.8878 56.4633L37.9742 56.7296C38.0065 56.9154 38.2605 57.8282 38.7363 59.4681C39.064 60.6514 39.1199 61.5584 38.9039 62.1891C38.714 62.7273 38.4923 63.0375 38.2386 63.1198C38.0864 63.1691 37.9428 63.2017 37.8077 63.2175C37.1996 63.3306 36.7698 63.3018 36.5182 63.1311C36.2919 62.9522 36.0472 62.4569 35.7839 61.6452L35.5124 60.8081C35.3732 60.2925 34.6873 58.048 33.4546 54.0745L32.924 52.4384C32.2822 50.4598 31.6241 48.9492 30.9495 47.9065C30.0918 46.5587 29.5684 45.593 29.3791 45.0096C29.2886 44.7306 29.2691 44.5407 29.3205 44.4399C29.3726 44.2548 29.5437 43.9611 29.8337 43.5586ZM42.5625 40.2712C43.5826 39.2675 44.4732 38.6423 45.2342 38.3954L45.6147 38.272C46.122 38.1075 46.6317 38.1664 47.1438 38.4489C47.6559 38.7313 47.9901 39.1135 48.1465 39.5955C48.2452 39.8999 48.2812 40.1405 48.2544 40.3174C48.2195 40.4689 48.0831 40.6533 47.8452 40.8706C47.5901 41.1216 47.2724 41.3087 46.8919 41.4321C46.7397 41.4815 46.6214 41.5058 46.5371 41.5052C46.4864 41.5216 46.423 41.5422 46.3469 41.5669C46.2626 41.5662 46.2077 41.5699 46.1823 41.5782C45.9033 41.6687 45.6658 41.8438 45.4697 42.1037C45.2565 42.3971 44.9977 42.5932 44.6933 42.6919C44.4396 42.7742 44.1452 43.2061 43.81 43.9876C43.6811 44.2817 43.5049 44.6893 43.2814 45.2103C43.0751 45.6978 42.9075 46.0886 42.7786 46.3827C42.6751 46.6685 42.5455 47.047 42.3899 47.518C42.2596 47.9807 42.1671 48.4733 42.1122 48.9957C41.9429 50.1159 41.9076 50.8282 42.0063 51.1326C42.0722 51.3355 42.1966 51.5895 42.3796 51.8946C42.8863 52.8517 43.4169 53.4505 43.9715 53.6911C44.5179 53.9064 45.5168 53.9609 46.9682 53.8546C47.6263 53.8093 48.9827 53.4535 51.0373 52.7871C53.0666 52.1289 54.3863 51.6168 54.9964 51.2507C55.4709 50.9847 55.7207 50.8476 55.7461 50.8394C55.949 50.7735 56.1804 50.8387 56.4402 51.0347C56.759 51.2397 56.9555 51.4564 57.0295 51.6847C57.1447 52.0398 57.0216 52.6544 56.6603 53.5285C56.2648 54.4698 56.0917 55.0165 56.141 55.1687C56.2315 55.4477 55.3509 55.8875 53.4992 56.4881C53.0426 56.6362 52.7215 56.7264 52.5357 56.7586C51.8768 56.8882 50.9051 57.1333 49.6203 57.4939C46.983 58.2652 44.8882 58.1596 43.3361 57.1772C43.1181 57.0237 42.5559 56.6734 41.6496 56.1263C41.2464 55.9206 41.0161 55.729 40.9585 55.5514C40.9009 55.3739 40.6757 55.0685 40.2829 54.6352C39.9901 54.3377 39.7615 53.9352 39.5969 53.4279C39.5476 53.2757 39.4578 52.9124 39.3275 52.3379C38.96 50.8591 38.779 49.7824 38.7845 49.1078C38.79 48.4332 38.9569 47.6082 39.2853 46.6326C39.6747 45.413 39.857 44.7651 39.8323 44.689C39.7912 44.5622 39.9965 44.2012 40.4483 43.6061C40.8665 42.9939 41.0811 42.5319 41.092 42.2199C41.0776 41.9162 41.5678 41.2666 42.5625 40.2712ZM53.7601 26.0004C54.109 25.6069 54.4103 25.369 54.664 25.2867C54.9176 25.2045 55.2796 25.2833 55.7499 25.5232C56.2709 25.7467 56.7142 26.2057 57.0796 26.9002C57.4621 27.5611 57.9503 28.7204 58.544 30.378L58.6797 30.7966C59.1569 32.2678 59.7023 34.1654 60.3159 36.4895C60.9295 38.8136 61.2593 40.2625 61.3052 40.8363C61.369 41.2922 61.4643 41.4996 61.5911 41.4585C61.7433 41.4091 62.239 40.6036 63.0781 39.0418C63.8658 37.5809 64.456 36.5484 64.8489 35.9444C65.0545 35.5413 65.5509 34.6514 66.3379 33.2748C67.1338 31.8392 67.7854 31.0392 68.2927 30.8746C68.4703 30.817 68.6139 30.7845 68.7236 30.7769C69.525 30.7413 70.0821 31.2054 70.3947 32.1693C70.6086 32.8288 70.5288 33.3173 70.1551 33.6347C69.9172 33.852 69.5878 34.4354 69.1669 35.3849C68.7631 36.3009 68.4138 37.2552 68.119 38.2479C67.9196 38.9293 67.6608 39.644 67.3427 40.392C67.0856 40.8959 67.0403 41.275 67.2069 41.5293C67.4071 41.8008 69.0916 42.5861 72.2603 43.8852C72.8149 44.1259 73.1683 44.2215 73.3205 44.1721C73.4981 44.1145 73.881 44.2146 74.4692 44.4724C74.7043 44.5924 74.9984 44.7212 75.3515 44.859C75.7299 44.9886 76.0409 45.1261 76.2842 45.2714C76.553 45.4085 76.8128 45.6046 77.0637 45.8596C77.4819 46.2846 77.8933 46.5157 78.2978 46.5527C79.0053 46.6596 79.4948 47.1316 79.7663 47.9687C79.8321 48.1716 79.8729 48.3406 79.8886 48.4757C79.9613 48.8726 79.9675 49.151 79.9072 49.3107C79.8468 49.4704 79.6597 49.6713 79.3457 49.9133C78.9549 50.2643 78.6073 50.4892 78.3029 50.5879C78.0493 50.6702 77.6661 50.6123 77.1532 50.4142C76.6576 50.1824 76.3642 49.9692 76.273 49.7745C76.1482 49.5627 75.4431 49.1606 74.1576 48.5683C72.9558 48.061 71.9265 47.6099 71.0695 47.215C70.3805 46.9059 69.9726 46.7718 69.8458 46.813C69.6936 46.8623 69.3909 46.7503 68.9377 46.4767C68.333 46.1682 67.7654 45.9739 67.2348 45.8937C66.5526 45.7785 66.1656 45.6657 66.0738 45.5554C65.9147 45.4107 65.528 45.2558 64.9138 45.0906C64.2913 44.9 63.8912 44.8335 63.7137 44.8911C63.5361 44.9487 63.2715 45.3429 62.9198 46.0737C62.5681 46.8045 62.3741 47.33 62.3378 47.6501C62.3104 47.9113 62.4468 48.7642 62.7471 50.2087C63.0549 51.7628 63.2119 52.6791 63.2181 52.9574C63.2243 53.2358 63.0659 53.5254 62.743 53.8264C62.488 54.0773 62.2844 54.2275 62.1322 54.2768C61.98 54.3262 61.727 54.3241 61.3733 54.2707C60.8762 54.2076 60.5112 53.9896 60.2781 53.6167C60.1451 53.3794 60.0416 53.1467 59.9675 52.9184C59.6549 51.9545 59.4715 50.6543 59.4173 49.0179C59.311 45.492 58.5033 41.1003 56.9943 35.8427C56.7976 35.1496 56.51 34.2196 56.1315 33.0528C55.136 29.9835 54.3864 28.3204 53.8825 28.0633C53.6809 27.9605 53.5102 27.6934 53.3703 27.2622C53.2798 26.9832 53.2521 26.7679 53.287 26.6164C53.3474 26.4567 53.505 26.2513 53.7601 26.0004ZM107.576 19.1848C107.951 18.6988 108.43 18.3611 109.014 18.1719C109.597 17.9827 110.31 17.9336 111.153 18.0248C111.826 18.1146 112.327 18.2325 112.655 18.3786C112.983 18.5246 113.356 18.8101 113.774 19.2351C114.15 19.6177 114.389 19.8347 114.49 19.8861C114.675 19.9382 114.918 20.1257 115.219 20.4486C115.537 20.7379 115.725 20.9713 115.782 21.1489C115.856 21.3772 116.235 21.9832 116.919 22.967C117.56 23.9083 118.24 25.3137 118.959 27.1832C119.116 27.5808 119.318 28.1601 119.565 28.9211C120.963 33.2333 120.876 35.6444 119.303 36.1545C118.923 36.2779 118.553 36.1737 118.193 35.8419C117.825 35.4847 117.534 34.9764 117.32 34.3169C117.139 33.7588 117.034 33.1761 117.005 32.5687C116.928 31.6404 116.795 30.8846 116.606 30.3012C116.45 29.8192 116.135 29.0661 115.663 28.0419C114.494 25.5615 113.516 23.9303 112.73 23.148C112.119 22.5612 111.781 22.1663 111.715 21.9634C111.658 21.7858 111.46 21.6535 111.124 21.5665C110.813 21.4712 110.53 21.4647 110.276 21.5469C110.175 21.5798 110.103 21.6172 110.06 21.659C109.484 22.0423 108.922 22.7292 108.374 23.7198C107.826 24.7105 107.43 25.6939 107.186 26.6702C106.95 27.7561 107.394 30.6396 108.52 35.3207C109.001 37.3232 108.786 38.4725 107.872 38.7687C107.593 38.8592 107.206 38.8308 106.709 38.6834L105.927 38.4746L104.782 34.5566C104.627 33.9904 104.388 33.2126 104.067 32.2233C103.047 29.078 102.219 27.216 101.583 26.6374C100.863 25.9737 99.7174 25.8126 98.1461 26.1541C97.6223 26.2679 97.3351 26.333 97.2843 26.3495C96.9546 26.4564 96.5635 26.8496 96.111 27.529C95.3686 28.6108 94.9195 29.3872 94.7639 29.8582C94.6001 30.3039 94.574 30.915 94.6858 31.6918C94.8222 32.5446 94.9456 33.9624 95.056 35.945C95.1609 37.565 95.3838 39.2028 95.7245 40.8585C95.9281 41.7456 96.0368 42.3832 96.0505 42.7712C96.0814 43.1256 96.0279 43.4794 95.8901 43.8325C95.7085 44.396 95.4274 44.7395 95.0469 44.8629C94.4381 45.0603 93.7748 44.7008 93.057 43.7842C92.7814 43.453 92.5572 43.0211 92.3845 42.4884C92.2117 41.9558 91.7263 39.9406 90.9282 36.4428C90.9118 36.3921 90.8871 36.316 90.8542 36.2145C90.8384 36.0795 90.8182 35.9739 90.7935 35.8978C90.4315 34.7817 89.7727 33.3554 88.817 31.6188C87.8531 29.857 87.1781 28.8564 86.7921 28.6171C86.5152 28.4546 86.3362 28.1623 86.2553 27.7399C86.2156 27.4445 86.2173 27.2337 86.2605 27.1075C86.3036 26.9814 86.4565 26.8477 86.7191 26.7064C87.007 26.557 87.2778 26.4411 87.5315 26.3589C87.7598 26.2848 87.9288 26.244 88.0385 26.2365C88.3593 26.1885 88.5869 26.1988 88.7213 26.2673C88.8557 26.3359 89.0312 26.5313 89.2478 26.8535C89.4144 27.1078 89.6187 27.392 89.8607 27.706C90.1199 27.9864 90.3615 28.3425 90.5857 28.7744C90.8846 29.3503 91.1229 29.6094 91.3004 29.5518C91.4526 29.5025 91.5688 29.2125 91.649 28.6818C91.7292 28.1512 91.9099 27.7142 92.1909 27.3707C92.5145 26.9854 92.7072 26.6286 92.7689 26.3002C92.8395 25.9128 93.0362 25.5687 93.3591 25.2677C94.0474 24.6239 94.5369 24.0587 94.8276 23.5719C94.9476 23.3368 95.3373 23.1123 95.9968 22.8984C96.7831 22.6433 97.805 22.4661 99.0623 22.3667C100.361 22.3097 101.779 22.7893 103.314 23.8053L104.119 24.3431L105.134 22.4159C105.802 21.1058 106.289 20.3592 106.594 20.1762C106.916 19.9595 107.243 19.6291 107.576 19.1848ZM131.364 12.8151C131.011 12.6773 130.543 12.703 129.959 12.8922C128.513 13.3612 127.356 14.1993 126.486 15.4066C126.375 15.5828 126.145 15.7833 125.798 16.0082C125.543 16.1748 125.245 16.5519 124.903 17.1394C124.561 17.7269 124.299 18.3025 124.117 18.866L123.858 19.6229L124.513 19.9571C124.816 20.1113 125.144 20.173 125.498 20.1422C125.853 20.1113 126.668 19.9029 127.945 19.5169L130.671 18.7168L131.353 17.3182C132.073 15.823 132.261 14.5427 131.915 13.4774C131.8 13.1222 131.616 12.9015 131.364 12.8151ZM126.026 11.2665C127.019 10.524 127.971 10.0047 128.885 9.70849C129.595 9.47813 130.228 9.39894 130.784 9.47092C131.374 9.56004 131.964 9.60699 132.554 9.61178C132.95 9.62343 133.245 9.66799 133.438 9.74546C133.631 9.82292 133.875 10.0104 134.167 10.308C134.51 10.6734 134.755 11.0844 134.904 11.5409C135.093 12.1244 135.248 12.6906 135.37 13.2398C135.582 14.2366 135.699 14.8995 135.721 15.2286C135.744 15.5577 135.682 15.9282 135.535 16.3402C135.466 16.5589 135.375 16.8829 135.262 17.312C135.166 17.7076 135.062 18.0356 134.95 18.2962C134.855 18.5231 134.706 18.7959 134.501 19.1147C134.441 19.1901 134.266 19.4712 133.975 19.958C133.71 20.4365 133.517 20.7512 133.398 20.902C133.271 21.0275 133.045 21.2407 132.723 21.5417C132.425 21.8344 132.082 22.072 131.692 22.2543C131.015 22.5861 130.587 22.7808 130.41 22.8384C130.258 22.8878 130.165 22.9039 130.131 22.8868C129.904 22.8765 129.173 23.0013 127.94 23.2611C126.724 23.4874 125.887 23.6745 125.431 23.8226C125.253 23.8802 125.168 23.9217 125.177 23.9471C125.141 24.1829 126.168 24.9291 128.258 26.1857C129.348 26.8692 130.379 27.1517 131.35 27.0331C131.704 27.0022 132.244 27.0234 132.968 27.0968C133.491 27.1516 134.086 27.1269 134.753 27.0227C134.888 27.007 135.069 26.9621 135.298 26.888C135.627 26.7811 136.014 26.4595 136.457 25.9234C136.951 25.2865 137.336 24.615 137.611 23.9089C137.879 23.1774 138.139 22.7705 138.393 22.6882C138.57 22.6306 138.819 22.7043 139.137 22.9093C139.423 23.0971 139.623 23.3686 139.738 23.7237C139.87 24.1296 139.953 24.7754 139.988 25.6611C139.984 26.0828 139.891 26.6597 139.708 27.3918C139.517 28.0987 139.349 28.5316 139.204 28.6907C139.077 28.8161 138.902 29.0972 138.679 29.5339C138.414 30.0124 138.04 30.3299 137.558 30.4862C137.152 30.6178 136.806 30.7162 136.518 30.7813C135.301 31.0919 134.415 31.2112 133.859 31.1392C133.531 31.0775 133.012 31.0775 132.303 31.1392C131.586 31.1756 131.047 31.1122 130.686 30.949C130.232 30.7598 129.798 30.6762 129.385 30.6981C129.056 30.7207 128.337 30.4493 127.228 29.8837C126.137 29.2845 125.432 28.7981 125.115 28.4245C124.756 28.0084 124.337 27.6676 123.858 27.4023C122.717 26.7353 121.638 25.6555 120.621 24.1631C120.388 23.7901 120.259 23.5656 120.234 23.4895C120.177 23.3119 120.172 22.8228 120.221 22.0221C120.321 21.1205 120.342 20.581 120.285 20.4034C120.235 20.2512 120.251 19.8255 120.333 19.1262C120.466 18.3262 120.764 17.4726 121.227 16.5656C121.689 15.6586 122.167 15.0131 122.659 14.6292C123.262 14.1534 123.721 13.668 124.037 13.1731C124.413 12.6027 125.076 11.9671 126.026 11.2665Z" fill="url(#paint0_linear_3104_153)"/>
<defs>
<linearGradient id="paint0_linear_3104_153" x1="11.5" y1="46.502" x2="91" y2="53.502" gradientUnits="userSpaceOnUse">
<stop stop-color="#F15613"/>
<stop offset="1" stop-color="#F27B13"/>
</linearGradient>
</defs>
</svg>
