<svg width="252" height="338" viewBox="0 0 252 338" fill="none" xmlns="http://www.w3.org/2000/svg">
<rect x="198.5" y="11.5" width="53" height="53" rx="7.5" fill="url(#paint0_radial_3115_293)" stroke="url(#paint1_linear_3115_293)"/>
<path d="M212.708 6.26154L214.37 1.36308H214.891L212.926 7H212.466L210.497 1.36308H211.067L212.708 6.26154ZM218.102 2.69231V6.55692H219.353V7H216.231V6.55692H217.593V3.13538H216.272V2.69231H218.102ZM217.622 0.74359C217.753 0.74359 217.857 0.783248 217.934 0.862565C218.01 0.941881 218.049 1.03761 218.049 1.14974C218.049 1.27009 218.01 1.37128 217.934 1.45333C217.857 1.53265 217.753 1.57231 217.622 1.57231C217.499 1.57231 217.399 1.53265 217.322 1.45333C217.246 1.37128 217.208 1.27009 217.208 1.14974C217.208 1.03761 217.246 0.941881 217.322 0.862565C217.399 0.783248 217.499 0.74359 217.622 0.74359ZM223.594 0.878974L224.103 0.948718V7H223.66L223.594 6.40513C223.422 6.65128 223.229 6.82632 223.016 6.93026C222.805 7.03145 222.588 7.08205 222.363 7.08205C221.983 7.08205 221.67 6.98906 221.424 6.80308C221.18 6.61436 221 6.35316 220.882 6.01949C220.765 5.68308 220.706 5.29607 220.706 4.85846C220.706 4.42906 220.771 4.04615 220.903 3.70974C221.037 3.3706 221.228 3.10393 221.477 2.90974C221.729 2.71282 222.032 2.61436 222.388 2.61436C222.65 2.61436 222.88 2.66085 223.077 2.75385C223.274 2.8441 223.446 2.97812 223.594 3.1559V0.878974ZM222.515 3.05333C222.116 3.05333 221.809 3.20513 221.596 3.50872C221.385 3.80957 221.28 4.25812 221.28 4.85436C221.28 5.23179 221.323 5.55453 221.407 5.82256C221.495 6.08786 221.623 6.29026 221.793 6.42974C221.963 6.56923 222.175 6.63897 222.429 6.63897C222.702 6.63897 222.934 6.56239 223.122 6.40923C223.314 6.25607 223.471 6.08786 223.594 5.90462V3.66462C223.468 3.47043 223.311 3.32 223.122 3.21333C222.936 3.10667 222.734 3.05333 222.515 3.05333ZM226.268 5.05128C226.276 5.41231 226.34 5.70906 226.461 5.94154C226.584 6.17128 226.745 6.34085 226.945 6.45026C227.144 6.55966 227.362 6.61436 227.597 6.61436C227.824 6.61436 228.025 6.58154 228.2 6.5159C228.378 6.45026 228.564 6.35043 228.758 6.21641L229.025 6.59795C228.825 6.75111 228.599 6.87009 228.348 6.95487C228.099 7.03966 227.855 7.08205 227.617 7.08205C227.221 7.08205 226.88 6.98906 226.596 6.80308C226.314 6.61709 226.098 6.35726 225.948 6.02359C225.797 5.68718 225.722 5.29607 225.722 4.85026C225.722 4.41265 225.799 4.02564 225.952 3.68923C226.105 3.35282 226.317 3.09026 226.588 2.90154C226.861 2.71009 227.178 2.61436 227.539 2.61436C227.89 2.61436 228.189 2.69915 228.438 2.86872C228.687 3.03829 228.877 3.27897 229.008 3.59077C229.142 3.89983 229.209 4.26906 229.209 4.69846C229.209 4.77231 229.208 4.83932 229.205 4.89949C229.202 4.95692 229.2 5.00752 229.197 5.05128H226.268ZM227.552 3.09026C227.204 3.09026 226.912 3.21333 226.674 3.45949C226.439 3.70564 226.306 4.08308 226.276 4.59179H228.725C228.714 4.08581 228.601 3.70974 228.385 3.46359C228.169 3.2147 227.891 3.09026 227.552 3.09026ZM232.396 2.61436C232.79 2.61436 233.118 2.70598 233.38 2.88923C233.643 3.07248 233.838 3.33094 233.967 3.66462C234.098 3.99829 234.164 4.39214 234.164 4.84615C234.164 5.27282 234.097 5.65436 233.963 5.99077C233.829 6.32718 233.629 6.59385 233.364 6.79077C233.101 6.98496 232.775 7.08205 232.383 7.08205C231.99 7.08205 231.66 6.98906 231.395 6.80308C231.132 6.61436 230.934 6.35316 230.8 6.01949C230.669 5.68308 230.603 5.2947 230.603 4.85436C230.603 4.41402 230.67 4.02564 230.804 3.68923C230.938 3.35282 231.138 3.09026 231.403 2.90154C231.671 2.71009 232.002 2.61436 232.396 2.61436ZM232.396 3.06154C231.991 3.06154 231.683 3.20786 231.473 3.50051C231.265 3.79316 231.161 4.24444 231.161 4.85436C231.161 5.4506 231.263 5.89641 231.469 6.19179C231.674 6.48444 231.979 6.63077 232.383 6.63077C232.788 6.63077 233.093 6.48444 233.298 6.19179C233.503 5.89641 233.606 5.44786 233.606 4.84615C233.606 4.24171 233.503 3.79316 233.298 3.50051C233.096 3.20786 232.795 3.06154 232.396 3.06154ZM237.129 6.61846C237.495 6.61846 237.783 6.54872 237.99 6.40923C238.201 6.26701 238.306 6.08103 238.306 5.85128C238.306 5.70906 238.283 5.58598 238.237 5.48205C238.193 5.37538 238.096 5.28103 237.945 5.19897C237.798 5.11419 237.569 5.03487 237.26 4.96103C236.951 4.88444 236.683 4.79966 236.456 4.70667C236.232 4.61368 236.058 4.49197 235.935 4.34154C235.812 4.19111 235.75 3.99145 235.75 3.74256C235.75 3.50462 235.817 3.30222 235.951 3.13538C236.088 2.96581 236.274 2.83727 236.509 2.74974C236.747 2.65949 237.015 2.61436 237.313 2.61436C237.65 2.61436 237.943 2.65949 238.191 2.74974C238.443 2.84 238.654 2.9494 238.823 3.07795L238.585 3.45538C238.427 3.34325 238.25 3.25026 238.056 3.17641C237.862 3.10256 237.616 3.06564 237.318 3.06564C236.937 3.06564 236.671 3.12581 236.518 3.24615C236.364 3.3665 236.288 3.51829 236.288 3.70154C236.288 3.84376 236.325 3.96137 236.399 4.05436C236.475 4.14462 236.6 4.2253 236.772 4.29641C236.944 4.36479 237.177 4.43863 237.469 4.51795C237.751 4.5918 237.997 4.68068 238.208 4.78462C238.418 4.88855 238.583 5.02393 238.7 5.19077C238.818 5.35761 238.877 5.57368 238.877 5.83897C238.877 6.14256 238.79 6.38598 238.618 6.56923C238.449 6.74974 238.23 6.88103 237.962 6.96308C237.694 7.04239 237.415 7.08205 237.125 7.08205C236.745 7.08205 236.423 7.02598 236.161 6.91385C235.901 6.80171 235.685 6.67043 235.512 6.52L235.828 6.14667C235.998 6.28889 236.193 6.40376 236.415 6.49128C236.637 6.57607 236.875 6.61846 237.129 6.61846Z" fill="#737373"/>
<line x1="27.25" y1="65" x2="27.25" y2="123" stroke="url(#paint2_linear_3115_293)" stroke-width="0.5" stroke-dasharray="2 3"/>
<line x1="27" y1="122.75" x2="128" y2="122.75" stroke="url(#paint3_linear_3115_293)" stroke-width="0.5" stroke-dasharray="2 3"/>
<line x1="128.25" y1="65" x2="128.25" y2="137" stroke="url(#paint4_linear_3115_293)" stroke-width="0.5" stroke-dasharray="2 3"/>
<line x1="128.25" y1="203" x2="128.25" y2="245" stroke="url(#paint5_linear_3115_293)" stroke-width="0.5" stroke-dasharray="2 3"/>
<line x1="27" y1="244.75" x2="225" y2="244.75" stroke="url(#paint6_linear_3115_293)" stroke-width="0.5" stroke-dasharray="2 3"/>
<line x1="225.25" y1="65" x2="225.25" y2="123" stroke="url(#paint7_linear_3115_293)" stroke-width="0.5" stroke-dasharray="2 3"/>
<line x1="225.25" y1="245" x2="225.25" y2="272" stroke="url(#paint8_linear_3115_293)" stroke-width="0.5" stroke-dasharray="2 3"/>
<line x1="27.25" y1="245" x2="27.25" y2="271" stroke="url(#paint9_linear_3115_293)" stroke-width="0.5" stroke-dasharray="2 3"/>
<line x1="128" y1="122.75" x2="225" y2="122.75" stroke="url(#paint10_linear_3115_293)" stroke-width="0.5" stroke-dasharray="2 3"/>
<rect x="101.5" y="11.5" width="53" height="53" rx="7.5" fill="url(#paint11_radial_3115_293)" stroke="url(#paint12_linear_3115_293)"/>
<path d="M119.482 5.45333C119.482 5.14154 119.422 4.90359 119.301 4.73949C119.181 4.57265 119.022 4.45778 118.826 4.39487C118.631 4.33197 118.421 4.30051 118.194 4.30051H117.107V6.52821H118.169C118.309 6.52821 118.455 6.51453 118.608 6.48718C118.761 6.45709 118.904 6.40376 119.035 6.32718C119.169 6.2506 119.277 6.14256 119.359 6.00308C119.441 5.86085 119.482 5.67761 119.482 5.45333ZM119.256 2.78667C119.256 2.43658 119.148 2.18906 118.932 2.0441C118.716 1.89641 118.43 1.82256 118.075 1.82256H117.107V3.8041H118.153C118.5 3.8041 118.771 3.72342 118.965 3.56205C119.159 3.40068 119.256 3.14222 119.256 2.78667ZM120.044 5.4041C120.044 5.70496 119.984 5.95795 119.864 6.16308C119.743 6.36821 119.583 6.53231 119.384 6.65538C119.187 6.77846 118.966 6.86735 118.723 6.92205C118.482 6.97402 118.239 7 117.993 7H116.586V1.36308H117.853C118.088 1.36308 118.321 1.38496 118.551 1.42872C118.78 1.47248 118.988 1.54769 119.174 1.65436C119.363 1.76103 119.513 1.90598 119.626 2.08923C119.74 2.27248 119.798 2.50222 119.798 2.77846C119.798 3.02462 119.747 3.23248 119.646 3.40205C119.545 3.57162 119.414 3.70701 119.252 3.80821C119.094 3.90667 118.925 3.97504 118.748 4.01333C118.958 4.04889 119.162 4.11453 119.359 4.21026C119.559 4.30325 119.723 4.44547 119.851 4.63692C119.98 4.82564 120.044 5.08137 120.044 5.4041ZM123.091 2.61436C123.485 2.61436 123.813 2.70598 124.076 2.88923C124.338 3.07248 124.534 3.33094 124.662 3.66462C124.794 3.99829 124.859 4.39214 124.859 4.84615C124.859 5.27282 124.792 5.65436 124.658 5.99077C124.524 6.32718 124.325 6.59385 124.059 6.79077C123.797 6.98496 123.47 7.08205 123.079 7.08205C122.685 7.08205 122.355 6.98906 122.09 6.80308C121.827 6.61436 121.629 6.35316 121.495 6.01949C121.364 5.68308 121.298 5.2947 121.298 4.85436C121.298 4.41402 121.365 4.02564 121.499 3.68923C121.633 3.35282 121.833 3.09026 122.098 2.90154C122.366 2.71009 122.697 2.61436 123.091 2.61436ZM123.091 3.06154C122.686 3.06154 122.379 3.20786 122.168 3.50051C121.96 3.79316 121.856 4.24444 121.856 4.85436C121.856 5.4506 121.959 5.89641 122.164 6.19179C122.369 6.48444 122.674 6.63077 123.079 6.63077C123.484 6.63077 123.788 6.48444 123.994 6.19179C124.199 5.89641 124.301 5.44786 124.301 4.84615C124.301 4.24171 124.199 3.79316 123.994 3.50051C123.791 3.20786 123.49 3.06154 123.091 3.06154ZM128.013 2.61436C128.407 2.61436 128.735 2.70598 128.998 2.88923C129.26 3.07248 129.456 3.33094 129.584 3.66462C129.715 3.99829 129.781 4.39214 129.781 4.84615C129.781 5.27282 129.714 5.65436 129.58 5.99077C129.446 6.32718 129.246 6.59385 128.981 6.79077C128.719 6.98496 128.392 7.08205 128.001 7.08205C127.607 7.08205 127.277 6.98906 127.012 6.80308C126.749 6.61436 126.551 6.35316 126.417 6.01949C126.286 5.68308 126.22 5.2947 126.22 4.85436C126.22 4.41402 126.287 4.02564 126.421 3.68923C126.555 3.35282 126.755 3.09026 127.02 2.90154C127.288 2.71009 127.619 2.61436 128.013 2.61436ZM128.013 3.06154C127.608 3.06154 127.3 3.20786 127.09 3.50051C126.882 3.79316 126.778 4.24444 126.778 4.85436C126.778 5.4506 126.881 5.89641 127.086 6.19179C127.291 6.48444 127.596 6.63077 128.001 6.63077C128.405 6.63077 128.71 6.48444 128.915 6.19179C129.121 5.89641 129.223 5.44786 129.223 4.84615C129.223 4.24171 129.121 3.79316 128.915 3.50051C128.713 3.20786 128.412 3.06154 128.013 3.06154ZM134.826 2.69231L132.73 4.64103L135.08 7H134.346L132.012 4.64923L134.067 2.69231H134.826ZM131.926 0.878974V7H131.417V0.948718L131.926 0.878974ZM137.668 6.61846C138.034 6.61846 138.322 6.54872 138.529 6.40923C138.74 6.26701 138.845 6.08103 138.845 5.85128C138.845 5.70906 138.822 5.58598 138.776 5.48205C138.732 5.37538 138.635 5.28103 138.484 5.19897C138.337 5.11419 138.108 5.03487 137.799 4.96103C137.49 4.88444 137.222 4.79966 136.995 4.70667C136.771 4.61368 136.597 4.49197 136.474 4.34154C136.351 4.19111 136.289 3.99145 136.289 3.74256C136.289 3.50462 136.356 3.30222 136.491 3.13538C136.627 2.96581 136.813 2.83727 137.048 2.74974C137.286 2.65949 137.554 2.61436 137.853 2.61436C138.189 2.61436 138.482 2.65949 138.731 2.74974C138.982 2.84 139.193 2.9494 139.362 3.07795L139.124 3.45538C138.966 3.34325 138.789 3.25026 138.595 3.17641C138.401 3.10256 138.155 3.06564 137.857 3.06564C137.476 3.06564 137.21 3.12581 137.057 3.24615C136.903 3.3665 136.827 3.51829 136.827 3.70154C136.827 3.84376 136.864 3.96137 136.938 4.05436C137.014 4.14462 137.139 4.2253 137.311 4.29641C137.483 4.36479 137.716 4.43863 138.008 4.51795C138.29 4.5918 138.536 4.68068 138.747 4.78462C138.958 4.88855 139.122 5.02393 139.239 5.19077C139.357 5.35761 139.416 5.57368 139.416 5.83897C139.416 6.14256 139.329 6.38598 139.157 6.56923C138.988 6.74974 138.769 6.88103 138.501 6.96308C138.233 7.04239 137.954 7.08205 137.664 7.08205C137.284 7.08205 136.962 7.02598 136.7 6.91385C136.44 6.80171 136.224 6.67043 136.052 6.52L136.367 6.14667C136.537 6.28889 136.733 6.40376 136.954 6.49128C137.176 6.57607 137.414 6.61846 137.668 6.61846Z" fill="#737373"/>
<rect x="101.5" y="149.5" width="53" height="53" rx="7.5" fill="url(#paint13_radial_3115_293)" stroke="url(#paint14_linear_3115_293)"/>
<path d="M113.711 139.285C114.069 139.285 114.367 139.33 114.605 139.421C114.843 139.508 115.072 139.639 115.29 139.814L114.97 140.179C114.787 140.024 114.594 139.916 114.392 139.855C114.192 139.792 113.984 139.761 113.768 139.761C113.44 139.761 113.134 139.836 112.849 139.987C112.568 140.137 112.341 140.389 112.168 140.742C111.996 141.092 111.91 141.572 111.91 142.182C111.91 142.775 111.992 143.248 112.156 143.601C112.32 143.954 112.54 144.208 112.817 144.364C113.095 144.52 113.405 144.598 113.744 144.598C114.069 144.598 114.336 144.551 114.544 144.458C114.754 144.365 114.933 144.257 115.081 144.134L115.377 144.512C115.218 144.665 115.005 144.799 114.737 144.914C114.471 145.026 114.143 145.082 113.752 145.082C113.312 145.082 112.91 144.971 112.546 144.75C112.185 144.525 111.898 144.199 111.684 143.769C111.471 143.337 111.364 142.808 111.364 142.182C111.364 141.547 111.472 141.015 111.688 140.586C111.907 140.156 112.194 139.832 112.55 139.613C112.908 139.395 113.295 139.285 113.711 139.285ZM118.169 140.614C118.563 140.614 118.891 140.706 119.154 140.889C119.416 141.072 119.612 141.331 119.74 141.665C119.872 141.998 119.937 142.392 119.937 142.846C119.937 143.273 119.87 143.654 119.736 143.991C119.602 144.327 119.403 144.594 119.137 144.791C118.875 144.985 118.548 145.082 118.157 145.082C117.763 145.082 117.433 144.989 117.168 144.803C116.906 144.614 116.707 144.353 116.573 144.019C116.442 143.683 116.376 143.295 116.376 142.854C116.376 142.414 116.443 142.026 116.577 141.689C116.711 141.353 116.911 141.09 117.176 140.902C117.444 140.71 117.775 140.614 118.169 140.614ZM118.169 141.062C117.764 141.062 117.457 141.208 117.246 141.501C117.038 141.793 116.934 142.244 116.934 142.854C116.934 143.451 117.037 143.896 117.242 144.192C117.447 144.484 117.752 144.631 118.157 144.631C118.562 144.631 118.867 144.484 119.072 144.192C119.277 143.896 119.379 143.448 119.379 142.846C119.379 142.242 119.277 141.793 119.072 141.501C118.869 141.208 118.568 141.062 118.169 141.062ZM121.516 145V140.692H121.942L121.983 141.32C122.153 141.096 122.376 140.922 122.652 140.799C122.931 140.676 123.191 140.614 123.432 140.614C123.872 140.614 124.185 140.726 124.371 140.951C124.56 141.175 124.654 141.485 124.654 141.882V145H124.145V142.428C124.145 142.099 124.128 141.833 124.092 141.628C124.057 141.423 123.98 141.274 123.862 141.181C123.745 141.085 123.56 141.037 123.308 141.037C123.117 141.037 122.937 141.079 122.767 141.164C122.6 141.246 122.452 141.349 122.324 141.472C122.198 141.592 122.098 141.71 122.024 141.825V145H121.516ZM128.284 144.614C128.513 144.614 128.725 144.579 128.92 144.508C129.116 144.437 129.294 144.345 129.453 144.233L129.72 144.577C129.531 144.736 129.305 144.861 129.043 144.951C128.78 145.038 128.534 145.082 128.304 145.082C127.886 145.082 127.53 144.992 127.238 144.811C126.948 144.628 126.726 144.37 126.573 144.036C126.422 143.702 126.347 143.311 126.347 142.863C126.347 142.436 126.422 142.053 126.573 141.714C126.726 141.375 126.948 141.107 127.238 140.91C127.53 140.713 127.887 140.614 128.308 140.614C128.568 140.614 128.816 140.655 129.051 140.737C129.289 140.819 129.508 140.941 129.707 141.103L129.436 141.468C129.242 141.334 129.049 141.234 128.858 141.168C128.669 141.1 128.478 141.066 128.284 141.066C127.887 141.066 127.559 141.216 127.299 141.517C127.042 141.818 126.913 142.266 126.913 142.863C126.913 143.265 126.972 143.596 127.09 143.855C127.207 144.112 127.369 144.304 127.574 144.43C127.782 144.553 128.018 144.614 128.284 144.614ZM131.729 143.051C131.737 143.412 131.801 143.709 131.921 143.942C132.045 144.171 132.206 144.341 132.406 144.45C132.605 144.56 132.823 144.614 133.058 144.614C133.285 144.614 133.486 144.582 133.661 144.516C133.839 144.45 134.025 144.35 134.219 144.216L134.486 144.598C134.286 144.751 134.06 144.87 133.809 144.955C133.56 145.04 133.316 145.082 133.078 145.082C132.682 145.082 132.341 144.989 132.057 144.803C131.775 144.617 131.559 144.357 131.409 144.024C131.258 143.687 131.183 143.296 131.183 142.85C131.183 142.413 131.26 142.026 131.413 141.689C131.566 141.353 131.778 141.09 132.049 140.902C132.322 140.71 132.639 140.614 133 140.614C133.351 140.614 133.65 140.699 133.899 140.869C134.148 141.038 134.338 141.279 134.469 141.591C134.603 141.9 134.67 142.269 134.67 142.698C134.67 142.772 134.669 142.839 134.666 142.899C134.663 142.957 134.661 143.008 134.658 143.051H131.729ZM133.013 141.09C132.665 141.09 132.373 141.213 132.135 141.459C131.9 141.706 131.767 142.083 131.737 142.592H134.186C134.175 142.086 134.062 141.71 133.846 141.464C133.629 141.215 133.352 141.09 133.013 141.09ZM138.07 140.614C138.456 140.614 138.762 140.707 138.989 140.893C139.216 141.079 139.379 141.341 139.477 141.677C139.576 142.011 139.625 142.4 139.625 142.846C139.625 143.278 139.565 143.663 139.444 143.999C139.327 144.335 139.145 144.601 138.899 144.795C138.655 144.986 138.343 145.082 137.963 145.082C137.474 145.082 137.083 144.911 136.79 144.569V146.645L136.281 146.715V140.692H136.7L136.757 141.328C136.91 141.109 137.098 140.936 137.319 140.807C137.543 140.679 137.794 140.614 138.07 140.614ZM137.98 141.049C137.714 141.049 137.481 141.13 137.278 141.291C137.076 141.45 136.913 141.619 136.79 141.8V144.032C136.91 144.21 137.066 144.352 137.258 144.458C137.449 144.565 137.657 144.618 137.881 144.618C138.281 144.618 138.577 144.472 138.772 144.179C138.968 143.887 139.067 143.44 139.067 142.838C139.067 142.455 139.029 142.131 138.952 141.866C138.875 141.6 138.756 141.398 138.595 141.258C138.436 141.119 138.231 141.049 137.98 141.049ZM144.489 144.795C144.347 144.888 144.175 144.959 143.972 145.008C143.77 145.057 143.583 145.082 143.41 145.082C142.978 145.082 142.639 144.967 142.393 144.737C142.149 144.508 142.028 144.219 142.028 143.872V141.119H141.01V140.692H142.028V139.699L142.536 139.638V140.692H144.054L143.985 141.119H142.536V143.859C142.536 144.108 142.603 144.301 142.738 144.438C142.874 144.572 143.103 144.639 143.423 144.639C143.587 144.639 143.739 144.62 143.878 144.582C144.018 144.543 144.147 144.493 144.268 144.43L144.489 144.795Z" fill="#737373"/>
<rect x="0.5" y="284.5" width="53" height="53" rx="7.5" fill="url(#paint15_radial_3115_293)" stroke="url(#paint16_linear_3115_293)"/>
<path d="M22.0219 274.363L21.1029 280H20.307L19.5891 275.68L18.8793 280H18.0588L17.2137 274.363H17.7634L18.4896 279.327L19.228 275.019H20.0157L20.7214 279.327L21.5132 274.363H22.0219ZM24.552 275.614C24.9458 275.614 25.274 275.706 25.5366 275.889C25.7992 276.072 25.9947 276.331 26.1233 276.665C26.2545 276.998 26.3202 277.392 26.3202 277.846C26.3202 278.273 26.2532 278.654 26.1192 278.991C25.9851 279.327 25.7855 279.594 25.5202 279.791C25.2576 279.985 24.9308 280.082 24.5397 280.082C24.1458 280.082 23.8162 279.989 23.5509 279.803C23.2884 279.614 23.0901 279.353 22.9561 279.019C22.8248 278.683 22.7592 278.295 22.7592 277.854C22.7592 277.414 22.8262 277.026 22.9602 276.689C23.0942 276.353 23.2939 276.09 23.5592 275.902C23.8272 275.71 24.1581 275.614 24.552 275.614ZM24.552 276.062C24.1472 276.062 23.8395 276.208 23.6289 276.501C23.421 276.793 23.3171 277.244 23.3171 277.854C23.3171 278.451 23.4197 278.896 23.6248 279.192C23.8299 279.484 24.1349 279.631 24.5397 279.631C24.9444 279.631 25.2494 279.484 25.4545 279.192C25.6597 278.896 25.7622 278.448 25.7622 277.846C25.7622 277.242 25.6597 276.793 25.4545 276.501C25.2521 276.208 24.9513 276.062 24.552 276.062ZM27.9395 280V279.573H28.641V276.123H27.9395V275.692H29.0308L29.1251 276.726C29.2947 276.376 29.4971 276.103 29.7323 275.906C29.9703 275.706 30.2903 275.606 30.6923 275.606C30.8044 275.606 30.9043 275.614 30.9918 275.631C31.0821 275.647 31.1764 275.668 31.2749 275.692L31.1313 276.172C31.0356 276.145 30.9508 276.126 30.8769 276.115C30.8058 276.101 30.7238 276.094 30.6308 276.094C30.2834 276.094 29.988 276.213 29.7446 276.451C29.5012 276.686 29.3029 277.06 29.1497 277.571V279.573H30.0359V280H27.9395ZM30.7251 277.046V276.205L30.7579 275.692H31.2749L31.2174 277.046H30.7251ZM36.287 275.692L34.1906 277.641L36.5414 280H35.807L33.4726 277.649L35.528 275.692H36.287ZM33.3865 273.879V280H32.8778V273.949L33.3865 273.879Z" fill="#737373"/>
<rect x="198.5" y="284.5" width="53" height="53" rx="7.5" fill="url(#paint17_radial_3115_293)" stroke="url(#paint18_linear_3115_293)"/>
<path d="M210.711 274.285C211.069 274.285 211.367 274.33 211.605 274.421C211.843 274.508 212.072 274.639 212.29 274.814L211.97 275.179C211.787 275.024 211.594 274.916 211.392 274.855C211.192 274.792 210.984 274.761 210.768 274.761C210.44 274.761 210.134 274.836 209.849 274.987C209.568 275.137 209.341 275.389 209.168 275.742C208.996 276.092 208.91 276.572 208.91 277.182C208.91 277.775 208.992 278.248 209.156 278.601C209.32 278.954 209.54 279.208 209.817 279.364C210.095 279.52 210.405 279.598 210.744 279.598C211.069 279.598 211.336 279.551 211.544 279.458C211.754 279.365 211.933 279.257 212.081 279.134L212.377 279.512C212.218 279.665 212.005 279.799 211.737 279.914C211.471 280.026 211.143 280.082 210.752 280.082C210.312 280.082 209.91 279.971 209.546 279.75C209.185 279.525 208.898 279.199 208.684 278.769C208.471 278.337 208.364 277.808 208.364 277.182C208.364 276.547 208.472 276.015 208.688 275.586C208.907 275.156 209.194 274.832 209.55 274.613C209.908 274.395 210.295 274.285 210.711 274.285ZM215.169 275.614C215.563 275.614 215.891 275.706 216.154 275.889C216.416 276.072 216.612 276.331 216.74 276.665C216.872 276.998 216.937 277.392 216.937 277.846C216.937 278.273 216.87 278.654 216.736 278.991C216.602 279.327 216.403 279.594 216.137 279.791C215.875 279.985 215.548 280.082 215.157 280.082C214.763 280.082 214.433 279.989 214.168 279.803C213.906 279.614 213.707 279.353 213.573 279.019C213.442 278.683 213.376 278.295 213.376 277.854C213.376 277.414 213.443 277.026 213.577 276.689C213.711 276.353 213.911 276.09 214.176 275.902C214.444 275.71 214.775 275.614 215.169 275.614ZM215.169 276.062C214.764 276.062 214.457 276.208 214.246 276.501C214.038 276.793 213.934 277.244 213.934 277.854C213.934 278.451 214.037 278.896 214.242 279.192C214.447 279.484 214.752 279.631 215.157 279.631C215.562 279.631 215.867 279.484 216.072 279.192C216.277 278.896 216.379 278.448 216.379 277.846C216.379 277.242 216.277 276.793 216.072 276.501C215.869 276.208 215.568 276.062 215.169 276.062ZM218.516 280V275.692H218.942L218.983 276.32C219.153 276.096 219.376 275.922 219.652 275.799C219.931 275.676 220.191 275.614 220.432 275.614C220.872 275.614 221.185 275.726 221.371 275.951C221.56 276.175 221.654 276.485 221.654 276.882V280H221.145V277.428C221.145 277.099 221.128 276.833 221.092 276.628C221.057 276.423 220.98 276.274 220.862 276.181C220.745 276.085 220.56 276.037 220.308 276.037C220.117 276.037 219.937 276.079 219.767 276.164C219.6 276.246 219.452 276.349 219.324 276.472C219.198 276.592 219.098 276.71 219.024 276.825V280H218.516ZM226.724 279.795C226.581 279.888 226.409 279.959 226.207 280.008C226.004 280.057 225.817 280.082 225.645 280.082C225.213 280.082 224.873 279.967 224.627 279.737C224.384 279.508 224.262 279.219 224.262 278.872V276.119H223.245V275.692H224.262V274.699L224.771 274.638V275.692H226.289L226.219 276.119H224.771V278.859C224.771 279.108 224.838 279.301 224.972 279.438C225.109 279.572 225.337 279.639 225.657 279.639C225.821 279.639 225.973 279.62 226.112 279.582C226.252 279.543 226.382 279.493 226.502 279.43L226.724 279.795ZM228.729 278.051C228.737 278.412 228.801 278.709 228.921 278.942C229.045 279.171 229.206 279.341 229.406 279.45C229.605 279.56 229.823 279.614 230.058 279.614C230.285 279.614 230.486 279.582 230.661 279.516C230.839 279.45 231.025 279.35 231.219 279.216L231.486 279.598C231.286 279.751 231.06 279.87 230.809 279.955C230.56 280.04 230.316 280.082 230.078 280.082C229.682 280.082 229.341 279.989 229.057 279.803C228.775 279.617 228.559 279.357 228.409 279.024C228.258 278.687 228.183 278.296 228.183 277.85C228.183 277.413 228.26 277.026 228.413 276.689C228.566 276.353 228.778 276.09 229.049 275.902C229.322 275.71 229.639 275.614 230 275.614C230.351 275.614 230.65 275.699 230.899 275.869C231.148 276.038 231.338 276.279 231.469 276.591C231.603 276.9 231.67 277.269 231.67 277.698C231.67 277.772 231.669 277.839 231.666 277.899C231.663 277.957 231.661 278.008 231.658 278.051H228.729ZM230.013 276.09C229.665 276.09 229.373 276.213 229.135 276.459C228.9 276.706 228.767 277.083 228.737 277.592H231.186C231.175 277.086 231.062 276.71 230.846 276.464C230.629 276.215 230.352 276.09 230.013 276.09ZM233.281 280V275.692H233.708L233.749 276.32C233.919 276.096 234.141 275.922 234.418 275.799C234.697 275.676 234.956 275.614 235.197 275.614C235.638 275.614 235.951 275.726 236.137 275.951C236.325 276.175 236.42 276.485 236.42 276.882V280H235.911V277.428C235.911 277.099 235.893 276.833 235.858 276.628C235.822 276.423 235.746 276.274 235.628 276.181C235.51 276.085 235.326 276.037 235.074 276.037C234.883 276.037 234.702 276.079 234.533 276.164C234.366 276.246 234.218 276.349 234.089 276.472C233.964 276.592 233.864 276.71 233.79 276.825V280H233.281ZM241.489 279.795C241.347 279.888 241.175 279.959 240.972 280.008C240.77 280.057 240.583 280.082 240.41 280.082C239.978 280.082 239.639 279.967 239.393 279.737C239.149 279.508 239.028 279.219 239.028 278.872V276.119H238.01V275.692H239.028V274.699L239.536 274.638V275.692H241.054L240.985 276.119H239.536V278.859C239.536 279.108 239.603 279.301 239.738 279.438C239.874 279.572 240.103 279.639 240.423 279.639C240.587 279.639 240.739 279.62 240.878 279.582C241.018 279.543 241.147 279.493 241.268 279.43L241.489 279.795Z" fill="#737373"/>
<path d="M8 11.5H46C50.1421 11.5 53.5 14.8579 53.5 19V57C53.5 61.1421 50.1421 64.5 46 64.5H8C3.85786 64.5 0.5 61.1421 0.5 57V19C0.5 14.8579 3.85786 11.5 8 11.5Z" fill="url(#paint19_radial_3115_293)" stroke="url(#paint20_linear_3115_293)"/>
<path d="M7.55925 1.84718V7H7.03823V1.84718H5.22079V1.36308H9.3849L9.32746 1.84718H7.55925ZM11.1806 2.69231V5.77333C11.1806 6.07966 11.2449 6.30393 11.3734 6.44615C11.5047 6.58564 11.7112 6.65538 11.9929 6.65538C12.261 6.65538 12.5126 6.58017 12.7478 6.42974C12.983 6.27658 13.1635 6.10154 13.2893 5.90462V2.69231H13.7981V7H13.3714L13.314 6.39692C13.1389 6.61573 12.9256 6.7853 12.674 6.90564C12.4223 7.02325 12.1707 7.08205 11.9191 7.08205C11.5034 7.08205 11.1916 6.97402 10.9837 6.75795C10.7758 6.53915 10.6719 6.23145 10.6719 5.83487V2.69231H11.1806ZM18.8799 6.79487C18.7377 6.88786 18.5654 6.95897 18.363 7.00821C18.1606 7.05744 17.9733 7.08205 17.801 7.08205C17.3688 7.08205 17.0297 6.96718 16.7835 6.73744C16.5401 6.50769 16.4184 6.21915 16.4184 5.87179V3.11897H15.401V2.69231H16.4184V1.69949L16.9271 1.63795V2.69231H18.4451L18.3753 3.11897H16.9271V5.85949C16.9271 6.10838 16.9941 6.3012 17.1281 6.43795C17.2649 6.57197 17.4933 6.63897 17.8133 6.63897C17.9774 6.63897 18.1292 6.61983 18.2686 6.58154C18.4081 6.54325 18.538 6.49265 18.6584 6.42974L18.8799 6.79487ZM22.091 2.61436C22.4849 2.61436 22.8131 2.70598 23.0756 2.88923C23.3382 3.07248 23.5338 3.33094 23.6623 3.66462C23.7936 3.99829 23.8592 4.39214 23.8592 4.84615C23.8592 5.27282 23.7922 5.65436 23.6582 5.99077C23.5242 6.32718 23.3245 6.59385 23.0592 6.79077C22.7967 6.98496 22.4698 7.08205 22.0787 7.08205C21.6849 7.08205 21.3553 6.98906 21.09 6.80308C20.8274 6.61436 20.6292 6.35316 20.4951 6.01949C20.3639 5.68308 20.2982 5.2947 20.2982 4.85436C20.2982 4.41402 20.3652 4.02564 20.4992 3.68923C20.6333 3.35282 20.8329 3.09026 21.0982 2.90154C21.3662 2.71009 21.6972 2.61436 22.091 2.61436ZM22.091 3.06154C21.6862 3.06154 21.3786 3.20786 21.168 3.50051C20.9601 3.79316 20.8562 4.24444 20.8562 4.85436C20.8562 5.4506 20.9587 5.89641 21.1639 6.19179C21.369 6.48444 21.6739 6.63077 22.0787 6.63077C22.4835 6.63077 22.7885 6.48444 22.9936 6.19179C23.1987 5.89641 23.3013 5.44786 23.3013 4.84615C23.3013 4.24171 23.1987 3.79316 22.9936 3.50051C22.7912 3.20786 22.4903 3.06154 22.091 3.06154ZM25.4785 7V6.57333H26.1801V3.12308H25.4785V2.69231H26.5698L26.6642 3.72615C26.8338 3.37607 27.0362 3.10256 27.2714 2.90564C27.5093 2.70598 27.8293 2.60615 28.2314 2.60615C28.3435 2.60615 28.4433 2.61436 28.5309 2.63077C28.6211 2.64718 28.7155 2.66769 28.8139 2.69231L28.6703 3.17231C28.5746 3.14496 28.4898 3.12581 28.416 3.11487C28.3449 3.1012 28.2628 3.09436 28.1698 3.09436C27.8225 3.09436 27.5271 3.21333 27.2837 3.45128C27.0403 3.6865 26.842 4.05983 26.6888 4.57128V6.57333H27.575V7H25.4785ZM28.2642 4.04615V3.20513L28.297 2.69231H28.8139L28.7565 4.04615H28.2642ZM32.4066 2.69231V6.55692H33.6579V7H30.5358V6.55692H31.8979V3.13538H30.5768V2.69231H32.4066ZM31.9266 0.74359C32.0579 0.74359 32.1618 0.783248 32.2384 0.862565C32.315 0.941881 32.3532 1.03761 32.3532 1.14974C32.3532 1.27009 32.315 1.37128 32.2384 1.45333C32.1618 1.53265 32.0579 1.57231 31.9266 1.57231C31.8035 1.57231 31.7037 1.53265 31.6271 1.45333C31.5505 1.37128 31.5122 1.27009 31.5122 1.14974C31.5122 1.03761 31.5505 0.941881 31.6271 0.862565C31.7037 0.783248 31.8035 0.74359 31.9266 0.74359ZM38.2064 6.15077C38.2064 6.32581 38.2365 6.45436 38.2967 6.53641C38.3568 6.61573 38.4498 6.67453 38.5756 6.71282L38.4361 7.08615C38.272 7.06154 38.1257 7.00137 37.9972 6.90564C37.8686 6.80991 37.7784 6.66359 37.7264 6.46667C37.576 6.66632 37.3873 6.81949 37.1602 6.92615C36.936 7.03009 36.6816 7.08205 36.3972 7.08205C35.9705 7.08205 35.6355 6.96171 35.392 6.72103C35.1486 6.48034 35.0269 6.15897 35.0269 5.75692C35.0269 5.31932 35.1965 4.98427 35.5356 4.7518C35.8775 4.51932 36.3739 4.40308 37.0249 4.40308H37.6772V3.98462C37.6772 3.64821 37.5801 3.41299 37.3859 3.27897C37.1944 3.14222 36.9319 3.07385 36.5982 3.07385C36.4532 3.07385 36.2891 3.09026 36.1059 3.12308C35.9226 3.1559 35.7189 3.21197 35.4946 3.29128L35.3469 2.87282C35.6067 2.77709 35.842 2.71009 36.0526 2.67179C36.2659 2.6335 36.4724 2.61436 36.672 2.61436C37.178 2.61436 37.5596 2.7388 37.8167 2.98769C38.0765 3.23385 38.2064 3.56068 38.2064 3.96821V6.15077ZM36.4956 6.6759C36.7308 6.6759 36.951 6.61846 37.1561 6.50359C37.3613 6.38872 37.5349 6.22872 37.6772 6.02359V4.79282H36.9633C36.4519 4.79282 36.0949 4.88308 35.8926 5.06359C35.6902 5.24137 35.589 5.47795 35.589 5.77333C35.589 6.07145 35.6628 6.29709 35.8105 6.45026C35.9582 6.60068 36.1866 6.6759 36.4956 6.6759ZM41.7088 0.948718V6.02359C41.7088 6.24786 41.7799 6.4065 41.9221 6.49949C42.0671 6.59248 42.249 6.63897 42.4678 6.63897C42.6045 6.63897 42.7331 6.6253 42.8534 6.59795C42.9765 6.5706 43.1009 6.53231 43.2267 6.48308L43.3744 6.87692C43.2678 6.92889 43.1324 6.97538 42.9683 7.01641C42.8042 7.06017 42.6209 7.08205 42.4185 7.08205C42.0794 7.08205 41.7908 6.99043 41.5529 6.80718C41.3177 6.6212 41.2001 6.36 41.2001 6.02359V1.3918H39.8626V0.948718H41.7088ZM46.5117 6.61846C46.8782 6.61846 47.1654 6.54872 47.3732 6.40923C47.5838 6.26701 47.6891 6.08103 47.6891 5.85128C47.6891 5.70906 47.6659 5.58598 47.6194 5.48205C47.5756 5.37538 47.4785 5.28103 47.3281 5.19897C47.1804 5.11419 46.952 5.03487 46.643 4.96103C46.3339 4.88444 46.0659 4.79966 45.8389 4.70667C45.6146 4.61368 45.4409 4.49197 45.3178 4.34154C45.1948 4.19111 45.1332 3.99145 45.1332 3.74256C45.1332 3.50462 45.2002 3.30222 45.3343 3.13538C45.471 2.96581 45.657 2.83727 45.8922 2.74974C46.1302 2.65949 46.3982 2.61436 46.6963 2.61436C47.0327 2.61436 47.3254 2.65949 47.5743 2.74974C47.8259 2.84 48.0365 2.9494 48.206 3.07795L47.9681 3.45538C47.8095 3.34325 47.6331 3.25026 47.4389 3.17641C47.2447 3.10256 46.9985 3.06564 46.7004 3.06564C46.3202 3.06564 46.0536 3.12581 45.9004 3.24615C45.7472 3.3665 45.6707 3.51829 45.6707 3.70154C45.6707 3.84376 45.7076 3.96137 45.7814 4.05436C45.858 4.14462 45.9825 4.2253 46.1548 4.29641C46.3271 4.36479 46.5596 4.43863 46.8522 4.51795C47.1339 4.5918 47.3801 4.68068 47.5907 4.78462C47.8013 4.88855 47.9654 5.02393 48.083 5.19077C48.2006 5.35761 48.2594 5.57368 48.2594 5.83897C48.2594 6.14256 48.1732 6.38598 48.0009 6.56923C47.8313 6.74974 47.6125 6.88103 47.3445 6.96308C47.0765 7.04239 46.7975 7.08205 46.5076 7.08205C46.1274 7.08205 45.806 7.02598 45.5435 6.91385C45.2837 6.80171 45.0676 6.67043 44.8953 6.52L45.2112 6.14667C45.3808 6.28889 45.5763 6.40376 45.7978 6.49128C46.0194 6.57607 46.2573 6.61846 46.5117 6.61846Z" fill="#737373"/>
<path d="M141.292 26.5404C141.292 25.5279 140.471 24.707 139.458 24.707H131.667C129.642 24.707 128 26.3487 128 28.3737V51.2904L129.519 49.7716C130.894 48.3963 132.759 47.6237 134.704 47.6237H139.458C140.471 47.6237 141.292 46.8029 141.292 45.7904V26.5404Z" stroke="url(#paint21_linear_3115_293)" stroke-width="1.5" stroke-linecap="round" stroke-linejoin="round"/>
<path d="M114.707 26.5404C114.707 25.5279 115.528 24.707 116.54 24.707H124.332C126.357 24.707 127.999 26.3487 127.999 28.3737V51.2904L126.48 49.7716C125.105 48.3963 123.239 47.6237 121.294 47.6237H116.54C115.528 47.6237 114.707 46.8029 114.707 45.7904V26.5404Z" stroke="url(#paint22_linear_3115_293)" stroke-width="1.5" stroke-linecap="round" stroke-linejoin="round"/>
<path d="M211.707 28.3737C211.707 26.3487 213.349 24.707 215.374 24.707H234.624C236.649 24.707 238.29 26.3487 238.29 28.3737V47.6237C238.29 49.6488 236.649 51.2904 234.624 51.2904H215.374C213.349 51.2904 211.707 49.6488 211.707 47.6237V28.3737Z" stroke="url(#paint23_linear_3115_293)" stroke-width="1.5" stroke-linecap="round" stroke-linejoin="round"/>
<path d="M230.958 38.0013L220.875 32.043V43.9596L230.958 38.0013Z" stroke="url(#paint24_linear_3115_293)" stroke-width="1.5" stroke-linecap="round" stroke-linejoin="round"/>
<path d="M13.707 306.874C13.707 304.849 15.3487 303.207 17.3737 303.207H36.6237C38.6488 303.207 40.2904 304.849 40.2904 306.874V320.624C40.2904 322.649 38.6488 324.29 36.6237 324.29H17.3737C15.3487 324.29 13.707 322.649 13.707 320.624V306.874Z" stroke="url(#paint25_linear_3115_293)" stroke-width="1.5" stroke-linecap="round" stroke-linejoin="round"/>
<path d="M21.043 323.374V301.374C21.043 299.349 22.6846 297.707 24.7096 297.707H29.293C31.3181 297.707 32.9596 299.349 32.9596 301.374V323.374" stroke="url(#paint26_linear_3115_293)" stroke-width="1.5" stroke-linecap="round" stroke-linejoin="round"/>
<path d="M217.21 324.29H232.793C234.818 324.29 236.46 322.649 236.46 320.624V305.499L228.668 297.707H217.21C215.185 297.707 213.543 299.349 213.543 301.374V320.624C213.543 322.649 215.185 324.29 217.21 324.29Z" stroke="url(#paint27_linear_3115_293)" stroke-width="1.5" stroke-linecap="round" stroke-linejoin="round"/>
<path d="M235.999 305.96H228.207V298.168" stroke="url(#paint28_linear_3115_293)" stroke-width="1.5" stroke-linecap="round" stroke-linejoin="round"/>
<path d="M116.54 172.79V171.722C116.54 170.303 117.104 168.943 118.107 167.94C119.11 166.937 120.47 166.374 121.888 166.374H122.132C122.343 165.338 122.906 164.408 123.724 163.74C124.543 163.072 125.567 162.707 126.624 162.707H127.999M127.999 162.707H129.374C130.43 162.707 131.455 163.072 132.273 163.74C133.092 164.408 133.654 165.338 133.865 166.374H134.109C135.528 166.374 136.888 166.937 137.891 167.94C138.894 168.943 139.457 170.303 139.457 171.722V172.79M127.999 162.707V168.665M119.29 171.874C116.76 171.874 114.707 174.131 114.707 176.915C114.707 178.36 115.259 179.664 116.144 180.582C116.284 180.727 116.432 180.863 116.588 180.987M116.588 180.987C117.351 181.611 118.305 181.954 119.29 181.957H120.207M116.588 180.987C116.76 182.27 117.392 183.448 118.367 184.3C119.341 185.153 120.592 185.623 121.886 185.624H122.132C122.343 186.659 122.906 187.589 123.724 188.258C124.543 188.926 125.567 189.291 126.624 189.29H127.999M127.999 189.29H129.374C130.43 189.291 131.455 188.926 132.273 188.258C133.092 187.589 133.654 186.659 133.865 185.624H134.109C135.404 185.624 136.655 185.154 137.63 184.301C138.605 183.448 139.237 182.271 139.409 180.987M127.999 189.29V181.499M127.999 168.665V181.499M127.999 168.665C127.999 170.865 126.165 174.165 123.874 174.624M139.409 180.987C139.566 180.862 139.714 180.726 139.853 180.582C140.739 179.664 141.29 178.36 141.29 176.915C141.29 174.131 139.237 171.874 136.707 171.874M139.409 180.987C138.652 181.598 137.717 181.957 136.707 181.957H135.79M127.999 181.499C127.999 178.565 130.443 177.374 131.665 177.374H132.124" stroke="url(#paint29_linear_3115_293)" stroke-width="1.5" stroke-linecap="round" stroke-linejoin="round"/>
<path d="M17.375 37.082V45.7904C17.375 45.7904 19.6667 49.457 27 49.457C34.3333 49.457 36.625 45.7904 36.625 45.7904V37.082" stroke="url(#paint30_linear_3115_293)" stroke-width="1.5" stroke-linecap="round" stroke-linejoin="round"/>
<path d="M13.707 34.3346L26.9987 26.543L40.2905 34.3346L26.9987 42.1263L13.707 34.3346Z" stroke="url(#paint31_linear_3115_293)" stroke-width="1.5" stroke-linecap="round" stroke-linejoin="round"/>
<path d="M27.9154 34.3346C27.9154 34.8408 27.5049 35.2513 26.9987 35.2513C26.4925 35.2513 26.082 34.8408 26.082 34.3346C26.082 33.8284 26.4925 33.418 26.9987 33.418C27.5049 33.418 27.9154 33.8284 27.9154 34.3346Z" stroke="url(#paint32_linear_3115_293)" stroke-linecap="round" stroke-linejoin="round"/>
<defs>
<radialGradient id="paint0_radial_3115_293" cx="0" cy="0" r="1" gradientUnits="userSpaceOnUse" gradientTransform="translate(225 38) rotate(90) scale(27)">
<stop stop-color="#E5E6E6"/>
<stop offset="1" stop-color="#E8E8E8"/>
</radialGradient>
<linearGradient id="paint1_linear_3115_293" x1="225" y1="11" x2="225" y2="65" gradientUnits="userSpaceOnUse">
<stop stop-color="#636363"/>
<stop offset="1" stop-color="#2D2E2F"/>
</linearGradient>
<linearGradient id="paint2_linear_3115_293" x1="27" y1="94" x2="26" y2="94" gradientUnits="userSpaceOnUse">
<stop stop-color="#2D2E2F"/>
<stop offset="1" stop-color="#636363"/>
</linearGradient>
<linearGradient id="paint3_linear_3115_293" x1="77.5" y1="123" x2="77.5" y2="124" gradientUnits="userSpaceOnUse">
<stop stop-color="#2D2E2F"/>
<stop offset="1" stop-color="#636363"/>
</linearGradient>
<linearGradient id="paint4_linear_3115_293" x1="128" y1="101" x2="127" y2="101" gradientUnits="userSpaceOnUse">
<stop stop-color="#2D2E2F"/>
<stop offset="1" stop-color="#636363"/>
</linearGradient>
<linearGradient id="paint5_linear_3115_293" x1="128" y1="224" x2="127" y2="224" gradientUnits="userSpaceOnUse">
<stop stop-color="#2D2E2F"/>
<stop offset="1" stop-color="#636363"/>
</linearGradient>
<linearGradient id="paint6_linear_3115_293" x1="126" y1="245" x2="126" y2="246" gradientUnits="userSpaceOnUse">
<stop stop-color="#2D2E2F"/>
<stop offset="1" stop-color="#636363"/>
</linearGradient>
<linearGradient id="paint7_linear_3115_293" x1="225" y1="94" x2="224" y2="94" gradientUnits="userSpaceOnUse">
<stop stop-color="#2D2E2F"/>
<stop offset="1" stop-color="#636363"/>
</linearGradient>
<linearGradient id="paint8_linear_3115_293" x1="225" y1="258.5" x2="224" y2="258.5" gradientUnits="userSpaceOnUse">
<stop stop-color="#2D2E2F"/>
<stop offset="1" stop-color="#636363"/>
</linearGradient>
<linearGradient id="paint9_linear_3115_293" x1="27" y1="258" x2="26" y2="258" gradientUnits="userSpaceOnUse">
<stop stop-color="#2D2E2F"/>
<stop offset="1" stop-color="#636363"/>
</linearGradient>
<linearGradient id="paint10_linear_3115_293" x1="176.5" y1="123" x2="176.5" y2="124" gradientUnits="userSpaceOnUse">
<stop stop-color="#2D2E2F"/>
<stop offset="1" stop-color="#636363"/>
</linearGradient>
<radialGradient id="paint11_radial_3115_293" cx="0" cy="0" r="1" gradientUnits="userSpaceOnUse" gradientTransform="translate(128 38) rotate(90) scale(27)">
<stop stop-color="#E5E6E6"/>
<stop offset="1" stop-color="#E8E8E8"/>
</radialGradient>
<linearGradient id="paint12_linear_3115_293" x1="128" y1="11" x2="128" y2="65" gradientUnits="userSpaceOnUse">
<stop stop-color="#2D2E2F"/>
<stop offset="1" stop-color="#636363"/>
</linearGradient>
<radialGradient id="paint13_radial_3115_293" cx="0" cy="0" r="1" gradientUnits="userSpaceOnUse" gradientTransform="translate(128 176) rotate(90) scale(27)">
<stop stop-color="#E5E6E6"/>
<stop offset="1" stop-color="#E8E8E8"/>
</radialGradient>
<linearGradient id="paint14_linear_3115_293" x1="128" y1="149" x2="128" y2="203" gradientUnits="userSpaceOnUse">
<stop stop-color="#2D2E2F"/>
<stop offset="1" stop-color="#636363"/>
</linearGradient>
<radialGradient id="paint15_radial_3115_293" cx="0" cy="0" r="1" gradientUnits="userSpaceOnUse" gradientTransform="translate(27 311) rotate(90) scale(27)">
<stop stop-color="#E5E6E6"/>
<stop offset="1" stop-color="#E8E8E8"/>
</radialGradient>
<linearGradient id="paint16_linear_3115_293" x1="27" y1="284" x2="27" y2="338" gradientUnits="userSpaceOnUse">
<stop stop-color="#2D2E2F"/>
<stop offset="1" stop-color="#636363"/>
</linearGradient>
<radialGradient id="paint17_radial_3115_293" cx="0" cy="0" r="1" gradientUnits="userSpaceOnUse" gradientTransform="translate(225 311) rotate(90) scale(27)">
<stop stop-color="#E5E6E6"/>
<stop offset="1" stop-color="#E8E8E8"/>
</radialGradient>
<linearGradient id="paint18_linear_3115_293" x1="225" y1="284" x2="225" y2="338" gradientUnits="userSpaceOnUse">
<stop stop-color="#2D2E2F"/>
<stop offset="1" stop-color="#636363"/>
</linearGradient>
<radialGradient id="paint19_radial_3115_293" cx="0" cy="0" r="1" gradientUnits="userSpaceOnUse" gradientTransform="translate(27 38) rotate(90) scale(27)">
<stop stop-color="#E5E6E6"/>
<stop offset="1" stop-color="#E8E8E8"/>
</radialGradient>
<linearGradient id="paint20_linear_3115_293" x1="27" y1="11" x2="27" y2="65" gradientUnits="userSpaceOnUse">
<stop stop-color="#2D2E2F"/>
<stop offset="1" stop-color="#636363"/>
</linearGradient>
<linearGradient id="paint21_linear_3115_293" x1="134.646" y1="24.707" x2="134.646" y2="51.2904" gradientUnits="userSpaceOnUse">
<stop stop-color="#636363"/>
<stop offset="1" stop-color="#2D2E2F"/>
</linearGradient>
<linearGradient id="paint22_linear_3115_293" x1="121.353" y1="24.707" x2="121.353" y2="51.2904" gradientUnits="userSpaceOnUse">
<stop stop-color="#636363"/>
<stop offset="1" stop-color="#2D2E2F"/>
</linearGradient>
<linearGradient id="paint23_linear_3115_293" x1="224.999" y1="24.707" x2="224.999" y2="51.2904" gradientUnits="userSpaceOnUse">
<stop stop-color="#636363"/>
<stop offset="1" stop-color="#2D2E2F"/>
</linearGradient>
<linearGradient id="paint24_linear_3115_293" x1="225.917" y1="32.043" x2="225.917" y2="43.9596" gradientUnits="userSpaceOnUse">
<stop stop-color="#636363"/>
<stop offset="1" stop-color="#2D2E2F"/>
</linearGradient>
<linearGradient id="paint25_linear_3115_293" x1="26.9987" y1="303.207" x2="26.9987" y2="324.29" gradientUnits="userSpaceOnUse">
<stop stop-color="#636363"/>
<stop offset="1" stop-color="#2D2E2F"/>
</linearGradient>
<linearGradient id="paint26_linear_3115_293" x1="27.0013" y1="297.707" x2="27.0013" y2="323.374" gradientUnits="userSpaceOnUse">
<stop stop-color="#636363"/>
<stop offset="1" stop-color="#2D2E2F"/>
</linearGradient>
<linearGradient id="paint27_linear_3115_293" x1="225.001" y1="297.707" x2="225.001" y2="324.29" gradientUnits="userSpaceOnUse">
<stop stop-color="#636363"/>
<stop offset="1" stop-color="#2D2E2F"/>
</linearGradient>
<linearGradient id="paint28_linear_3115_293" x1="232.103" y1="298.168" x2="232.103" y2="305.96" gradientUnits="userSpaceOnUse">
<stop stop-color="#636363"/>
<stop offset="1" stop-color="#2D2E2F"/>
</linearGradient>
<linearGradient id="paint29_linear_3115_293" x1="127.999" y1="162.707" x2="127.999" y2="189.29" gradientUnits="userSpaceOnUse">
<stop stop-color="#636363"/>
<stop offset="1" stop-color="#2D2E2F"/>
</linearGradient>
<linearGradient id="paint30_linear_3115_293" x1="27" y1="37.082" x2="27" y2="49.457" gradientUnits="userSpaceOnUse">
<stop stop-color="#636363"/>
<stop offset="1" stop-color="#2D2E2F"/>
</linearGradient>
<linearGradient id="paint31_linear_3115_293" x1="26.9988" y1="26.543" x2="26.9988" y2="42.1263" gradientUnits="userSpaceOnUse">
<stop stop-color="#636363"/>
<stop offset="1" stop-color="#2D2E2F"/>
</linearGradient>
<linearGradient id="paint32_linear_3115_293" x1="26.9987" y1="33.418" x2="26.9987" y2="35.2513" gradientUnits="userSpaceOnUse">
<stop stop-color="#636363"/>
<stop offset="1" stop-color="#2D2E2F"/>
</linearGradient>
</defs>
</svg>
