<svg width="160" height="160" viewBox="0 0 160 160" fill="none" xmlns="http://www.w3.org/2000/svg">
<path d="M123.44 41.2248L79.2308 85.4335C77.942 86.7223 75.8527 86.7223 74.5639 85.4335C73.2752 84.1448 73.2752 82.0554 74.5639 80.7667L118.773 36.5579L116.157 30.0223C89.7958 10.3529 52.3052 12.4873 28.362 36.431C2.07203 62.721 2.07203 105.345 28.362 131.635C54.652 157.925 97.2764 157.925 123.566 131.635C147.51 107.692 149.645 70.2017 129.975 43.8398L123.44 41.2248Z" fill="url(#paint0_linear_1356_275)"/>
<path d="M134.362 20.9677L130.018 10.1108C129.396 8.55647 127.387 8.1446 126.203 9.32835L114.203 21.329C113.543 21.989 113.34 22.9783 113.686 23.8446L118.773 36.5571L134.362 20.9677Z" fill="#404040"/>
<path d="M139.03 25.6348L123.441 41.2235L136.153 46.3104C137.02 46.6573 138.009 46.4541 138.669 45.7941L150.67 33.7935C151.853 32.6098 151.441 30.601 149.887 29.9791L139.03 25.6348Z" fill="#404040"/>
<path d="M79.232 85.4331C77.9433 86.7219 75.8539 86.7219 74.5652 85.4331C73.2764 84.1444 73.2764 82.055 74.5652 80.7663L111.823 43.5088C90.5939 24.7019 58.0139 25.4469 37.697 45.7644C16.5958 66.8656 16.5958 101.2 37.697 122.301C58.7983 143.403 93.1327 143.403 114.234 122.301C134.551 101.984 135.296 69.4044 116.49 48.1756L79.232 85.4331Z" fill="#FAFAFA"/>
<path d="M79.2341 85.4328C77.9453 86.7215 75.8559 86.7215 74.5672 85.4328C73.2784 84.144 73.2784 82.0546 74.5672 80.7659L102.466 52.8671C86.4066 39.194 62.2003 39.9303 47.0322 55.0984C31.0778 71.0528 31.0778 97.0134 47.0322 112.968C62.9866 128.922 88.9472 128.922 104.902 112.968C120.07 97.7996 120.806 73.5934 107.133 57.534L79.2341 85.4328Z" fill="url(#paint1_linear_1356_275)"/>
<path d="M79.232 85.4328C77.9433 86.7216 75.8539 86.7216 74.5652 85.4328C73.2764 84.1441 73.2764 82.0547 74.5652 80.7659L93.0889 62.2422C82.2195 53.6891 66.382 54.4141 56.3639 64.4322C45.5558 75.2403 45.5558 92.8259 56.3639 103.634C67.172 114.442 84.7577 114.442 95.5658 103.634C105.584 93.6159 106.309 77.7784 97.7558 66.9091L79.232 85.4328Z" fill="#FAFAFA"/>
<path d="M88.2959 76.3705L79.2328 85.4337C77.9441 86.723 75.8547 86.723 74.5659 85.4337C73.2772 84.1449 73.2772 82.0555 74.5659 80.7668L83.6291 71.7043C78.0291 68.2237 70.5572 68.908 65.6991 73.7668C60.0378 79.428 60.0378 88.6399 65.6991 94.3012C71.3603 99.9624 80.5722 99.9624 86.2334 94.3012C91.0922 89.4418 91.7766 81.9705 88.2959 76.3705Z" fill="url(#paint2_linear_1356_275)"/>
<path d="M140.834 23.8307L79.2311 85.4338C77.9423 86.7226 75.853 86.7226 74.5642 85.4338C73.2755 84.1451 73.2755 82.0557 74.5642 80.767L136.167 19.1638C137.456 17.8751 139.545 17.8751 140.834 19.1638C142.123 20.4526 142.123 22.542 140.834 23.8307Z" fill="#262626"/>
<path d="M136.167 19.1638L115.633 39.6982L120.3 44.3651L140.834 23.8307C142.123 22.542 142.123 20.4526 140.834 19.1638C139.545 17.8751 137.456 17.8751 136.167 19.1638Z" fill="#FAFAFA"/>
<path d="M75.9673 152.883C58.328 152.883 40.6886 146.169 27.2598 132.74C0.402967 105.882 0.402967 62.1824 27.2598 35.3261C39.0267 23.5586 54.6405 16.4524 71.223 15.3143C87.643 14.1893 103.919 18.9549 117.05 28.7361C117.742 29.2518 117.885 30.2305 117.37 30.9224C116.854 31.6143 115.875 31.7574 115.184 31.2424C102.65 21.9068 87.1167 17.3605 71.4367 18.4324C55.6073 19.518 40.703 26.3024 29.4692 37.5361C3.8311 63.1743 3.8311 104.892 29.4692 130.531C55.1086 156.169 96.8261 156.169 122.464 130.531C133.693 119.302 140.476 104.405 141.566 88.5836C142.645 72.9149 138.105 57.3836 128.782 44.8499C128.267 44.158 128.41 43.1786 129.103 42.6636C129.795 42.1486 130.775 42.2924 131.289 42.9849C141.057 56.1161 145.814 72.3861 144.684 88.7986C143.542 105.374 136.436 120.979 124.674 132.741C111.245 146.169 93.6067 152.883 75.9673 152.883Z" fill="black"/>
<path d="M118.69 37.9105C118.07 37.9105 117.484 37.5387 117.239 36.928L112.237 24.4262C111.657 22.978 111.995 21.3287 113.099 20.2249L125.1 8.22428C126.028 7.29553 127.35 6.89615 128.637 7.16365C129.924 7.4274 130.982 8.31303 131.47 9.53178L135.755 20.2437C136.076 21.0449 135.687 21.9543 134.885 22.2749C134.081 22.5955 133.174 22.2055 132.854 21.4043L128.568 10.6924C128.434 10.3574 128.16 10.2555 128.008 10.2243C127.857 10.1924 127.563 10.1787 127.309 10.4343L115.308 22.4343C115.09 22.653 115.023 22.9787 115.138 23.2649L120.14 35.7668C120.461 36.568 120.072 37.4774 119.27 37.798C119.08 37.8749 118.884 37.9105 118.69 37.9105Z" fill="black"/>
<path d="M137.022 48.0419C136.536 48.0419 136.045 47.9507 135.575 47.7625L123.037 42.7457C122.236 42.4244 121.847 41.5157 122.167 40.7144C122.488 39.9138 123.396 39.5225 124.198 39.8438L136.735 44.8607C137.021 44.9757 137.347 44.9082 137.566 44.6907L149.567 32.69C149.821 32.435 149.807 32.1425 149.776 31.9907C149.745 31.8394 149.643 31.5644 149.308 31.4307L138.592 27.1432C137.791 26.8225 137.402 25.9132 137.722 25.1119C138.043 24.3113 138.95 23.92 139.753 24.2413L150.469 28.5288C151.687 29.0163 152.573 30.0757 152.837 31.3613C153.101 32.6482 152.704 33.97 151.777 34.8988L139.775 46.8994C139.03 47.645 138.036 48.0419 137.022 48.0419Z" fill="black"/>
<path d="M159.893 52.4261C157.082 51.9023 154.866 49.7323 154.332 46.9786C154.305 46.8405 154.112 46.8405 154.085 46.9786C153.551 49.7323 151.335 51.903 148.524 52.4261C148.383 52.4523 148.383 52.6417 148.524 52.668C151.335 53.1917 153.551 55.3617 154.085 58.1161C154.112 58.2542 154.305 58.2542 154.332 58.1161C154.866 55.3623 157.082 53.1917 159.893 52.668C160.034 52.6417 160.034 52.453 159.893 52.4261Z" fill="#404040"/>
<path d="M20.47 33.0183C17.9919 32.557 16.0394 30.6439 15.5681 28.2164C15.5444 28.0945 15.3744 28.0945 15.3506 28.2164C14.8794 30.6439 12.9269 32.557 10.4488 33.0183C10.3244 33.0414 10.3244 33.2083 10.4488 33.2314C12.9269 33.6927 14.8794 35.6058 15.3506 38.0333C15.3744 38.1552 15.5444 38.1552 15.5681 38.0333C16.0394 35.6058 17.9919 33.6927 20.47 33.2314C20.595 33.2077 20.595 33.0414 20.47 33.0183Z" fill="url(#paint3_linear_1356_275)"/>
<path d="M5.90281 128.429H7.35906V126.973C7.35906 125.883 8.24219 125 9.33219 125C10.4222 125 11.3053 125.883 11.3053 126.973V128.429H12.7609C13.8509 128.429 14.7341 129.312 14.7341 130.402C14.7341 131.492 13.8509 132.376 12.7609 132.376H11.3053V133.832C11.3053 134.922 10.4222 135.805 9.33219 135.805C8.24219 135.805 7.35906 134.922 7.35906 133.832V132.376H5.90281C4.81281 132.376 3.92969 131.492 3.92969 130.402C3.92969 129.312 4.81281 128.429 5.90281 128.429Z" fill="url(#paint4_linear_1356_275)"/>
<path d="M151.7 73.1236C152.866 73.1236 153.811 72.1786 153.811 71.013C153.811 69.8473 152.866 68.9023 151.7 68.9023C150.535 68.9023 149.59 69.8473 149.59 71.013C149.59 72.1786 150.535 73.1236 151.7 73.1236Z" fill="#F25118"/>
<path d="M2.11063 113.749C3.27629 113.749 4.22125 112.804 4.22125 111.638C4.22125 110.472 3.27629 109.527 2.11063 109.527C0.944959 109.527 0 110.472 0 111.638C0 112.804 0.944959 113.749 2.11063 113.749Z" fill="#404040"/>
<path d="M28.3606 23.1236C29.5263 23.1236 30.4713 22.1786 30.4713 21.013C30.4713 19.8473 29.5263 18.9023 28.3606 18.9023C27.195 18.9023 26.25 19.8473 26.25 21.013C26.25 22.1786 27.195 23.1236 28.3606 23.1236Z" fill="url(#paint5_linear_1356_275)"/>
<path d="M75.9661 139.691C61.0767 139.691 47.0936 133.908 36.593 123.406C26.0917 112.906 20.3086 98.9227 20.3086 84.0334C20.3086 69.144 26.0917 55.1609 36.593 44.6602C57.1586 24.094 90.4686 22.909 112.426 41.9602C113.078 42.5259 113.147 43.5127 112.582 44.1646C112.016 44.8159 111.03 44.8852 110.378 44.3209C89.6555 26.3384 58.2155 27.4584 38.8023 46.8696C28.8923 56.7802 23.4336 69.979 23.4336 84.0334C23.4336 98.0884 28.8917 111.286 38.8023 121.197C48.713 131.108 61.9111 136.566 75.9661 136.566C90.0205 136.566 103.219 131.108 113.13 121.197C132.595 101.731 133.673 70.244 115.584 49.5115C115.017 48.8615 115.084 47.8746 115.734 47.3071C116.384 46.7402 117.371 46.8071 117.938 47.4571C137.104 69.4234 135.962 102.784 115.339 123.407C104.839 133.908 90.8555 139.691 75.9661 139.691Z" fill="black"/>
<path d="M75.967 126.498C64.607 126.498 53.9389 122.085 45.9277 114.074C37.9164 106.063 33.5039 95.3938 33.5039 84.0344C33.5039 72.6751 37.9164 62.0063 45.9277 53.9951C53.4489 46.4732 63.4558 42.0776 74.1033 41.6169C84.6839 41.1563 94.9683 44.6113 103.068 51.3332C103.733 51.8844 103.824 52.8694 103.273 53.5338C102.721 54.1982 101.736 54.2888 101.072 53.7382C93.5702 47.5119 84.0489 44.3182 74.2377 44.7394C64.3733 45.1657 55.1039 49.2376 48.1364 56.2051C40.7152 63.6263 36.6283 73.5101 36.6283 84.0344C36.6283 94.5601 40.7152 104.443 48.1364 111.864C55.5577 119.286 65.4414 123.373 75.9664 123.373C86.4914 123.373 96.3745 119.286 103.796 111.864C110.769 104.891 114.841 95.6132 115.262 85.7407C115.68 75.9294 112.473 66.3944 106.231 58.8919C105.68 58.2282 105.77 57.2432 106.433 56.6913C107.096 56.1388 108.082 56.2294 108.634 56.8932C115.373 64.9926 118.836 75.2851 118.385 85.8732C117.93 96.5301 113.534 106.545 106.006 114.073C97.9952 122.085 87.327 126.498 75.967 126.498Z" fill="black"/>
<path d="M75.9653 113.303C68.1359 113.303 60.7822 110.261 55.2597 104.738C49.7366 99.2158 46.6953 91.862 46.6953 84.0326C46.6953 76.2033 49.7366 68.8495 55.2597 63.327C65.6266 52.9608 82.1997 51.8839 93.8109 60.8239C94.4947 61.3501 94.6222 62.3308 94.0953 63.0151C93.5691 63.6989 92.5891 63.827 91.9041 63.2995C81.5322 55.3151 66.7303 56.277 57.4691 65.5364C52.5366 70.4689 49.8203 77.037 49.8203 84.0326C49.8203 91.0283 52.5372 97.5964 57.4691 102.529C62.4009 107.461 68.9697 110.178 75.9653 110.178C82.9609 110.178 89.5291 107.461 94.4616 102.529C103.708 93.2826 104.68 78.492 96.7209 68.1245C96.1953 67.4395 96.3247 66.4589 97.0091 65.9333C97.6941 65.4083 98.6747 65.5358 99.2003 66.2214C108.11 77.8283 107.023 94.387 96.6709 104.738C91.1484 110.261 83.7947 113.303 75.9653 113.303Z" fill="black"/>
<path d="M75.9662 100.107C71.8469 100.108 67.7294 98.5404 64.5944 95.4048C61.5606 92.3717 59.8906 88.3335 59.8906 84.0329C59.8906 79.7329 61.5613 75.6942 64.5944 72.661C69.8394 67.4142 77.9387 66.4329 84.29 70.276C85.0287 70.7223 85.265 71.6829 84.8181 72.4217C84.3712 73.1604 83.4094 73.3967 82.6725 72.9498C77.555 69.856 71.03 70.6448 66.8038 74.871C64.3606 77.3142 63.015 80.5679 63.015 84.0335C63.015 87.4992 64.36 90.7529 66.8038 93.196C71.8563 98.2473 80.0756 98.2485 85.1281 93.196C89.3306 88.9942 90.1362 82.4948 87.0875 77.3904C86.645 76.6492 86.8875 75.6898 87.6275 75.2473C88.37 74.8067 89.3281 75.0473 89.7706 75.7873C93.5544 82.1235 92.5538 90.1904 87.3375 95.4054C84.2031 98.5392 80.0837 100.107 75.9662 100.107Z" fill="black"/>
<path d="M76.8977 87.9598C75.6527 87.9598 74.4077 87.4854 73.4595 86.5379C72.5408 85.6198 72.0352 84.3985 72.0352 83.0998C72.0352 81.801 72.5414 80.5804 73.4595 79.6616L135.062 18.0591C135.981 17.1404 137.201 16.6348 138.5 16.6348C139.799 16.6348 141.02 17.141 141.939 18.0591C142.857 18.9773 143.363 20.1985 143.363 21.4973C143.363 22.796 142.856 24.0166 141.938 24.9354L80.3358 86.5379C79.3877 87.486 78.1427 87.9598 76.8977 87.9598ZM138.501 19.7591C138.037 19.7591 137.601 19.9398 137.272 20.2679L75.6695 81.8704C75.3414 82.1985 75.1608 82.6354 75.1608 83.0991C75.1608 83.5629 75.3414 83.9991 75.6695 84.3273C76.347 85.006 77.4495 85.0054 78.127 84.3279L139.73 22.7254C140.058 22.3973 140.238 21.9604 140.238 21.4966C140.238 21.0329 140.058 20.5966 139.73 20.2685C139.401 19.9398 138.965 19.7591 138.501 19.7591Z" fill="black"/>
<path d="M120.036 45.6638C119.636 45.6638 119.236 45.5113 118.931 45.2063L114.763 41.0382C114.152 40.4276 114.152 39.4388 114.763 38.8288C115.373 38.2188 116.362 38.2182 116.972 38.8288L121.14 42.997C121.751 43.6076 121.751 44.5963 121.14 45.2063C120.835 45.5107 120.435 45.6638 120.036 45.6638Z" fill="black"/>
<defs>
<linearGradient id="paint0_linear_1356_275" x1="8.64453" y1="16.7148" x2="150.695" y2="25.0523" gradientUnits="userSpaceOnUse">
<stop stop-color="#F15613"/>
<stop offset="1" stop-color="#F27B13"/>
</linearGradient>
<linearGradient id="paint1_linear_1356_275" x1="35.0664" y1="43.1387" x2="121.365" y2="48.2039" gradientUnits="userSpaceOnUse">
<stop stop-color="#F15613"/>
<stop offset="1" stop-color="#F27B13"/>
</linearGradient>
<linearGradient id="paint2_linear_1356_275" x1="61.4531" y1="69.5234" x2="92.0748" y2="71.3207" gradientUnits="userSpaceOnUse">
<stop stop-color="#F15613"/>
<stop offset="1" stop-color="#F27B13"/>
</linearGradient>
<linearGradient id="paint3_linear_1356_275" x1="10.3555" y1="28.125" x2="21.1243" y2="28.7702" gradientUnits="userSpaceOnUse">
<stop stop-color="#F15613"/>
<stop offset="1" stop-color="#F27B13"/>
</linearGradient>
<linearGradient id="paint4_linear_1356_275" x1="3.92969" y1="125" x2="15.3289" y2="125.669" gradientUnits="userSpaceOnUse">
<stop stop-color="#F15613"/>
<stop offset="1" stop-color="#F27B13"/>
</linearGradient>
<linearGradient id="paint5_linear_1356_275" x1="26.25" y1="18.9023" x2="30.7037" y2="19.1637" gradientUnits="userSpaceOnUse">
<stop stop-color="#F15613"/>
<stop offset="1" stop-color="#F27B13"/>
</linearGradient>
</defs>
</svg>
