<svg width="122" height="160" viewBox="0 0 122 160" fill="none" xmlns="http://www.w3.org/2000/svg">
<path d="M12.5742 152.923C12.5742 151.929 13.3792 151.124 14.3723 151.124H18.1829C16.776 151.124 15.6354 149.984 15.6354 148.577V106.207L11.0792 107.354C7.48917 108.258 4.90417 111.39 4.69792 115.086L2.32793 155.954C2.25293 157.302 3.32542 158.436 4.67605 158.436H18.0873C15.0423 158.436 12.5742 155.968 12.5742 152.923Z" fill="url(#paint0_linear_1356_140)"/>
<path d="M67.5095 103.165L61.6257 100.263C59.097 99.0166 57.4951 96.4416 57.4951 93.6216V90.1328C54.5345 91.6822 51.1764 92.5653 47.6201 92.5653C44.0639 92.5653 40.7051 91.6828 37.7451 90.1328V93.6216C37.7451 96.4416 36.1439 99.0166 33.6145 100.263L27.7308 103.165L27.5977 103.198H67.6432L67.5095 103.165Z" fill="#F5F5F5"/>
<path d="M90.5358 115.086C90.3301 111.39 87.7445 108.258 84.1545 107.354L79.5983 106.207V148.577C79.5983 149.984 78.4577 151.124 77.0508 151.124H80.8614C81.8545 151.124 82.6595 151.929 82.6595 152.923C82.6595 155.968 80.1914 158.436 77.1464 158.436H90.5576C91.9076 158.436 92.9808 157.301 92.9058 155.953L90.5358 115.086Z" fill="url(#paint1_linear_1356_140)"/>
<path d="M65.9917 45.4976C64.5898 44.0276 62.311 43.8926 60.7136 45.1463C58.1873 47.1288 53.8161 49.5801 47.6423 49.5801C41.4536 49.5801 37.0592 47.1169 34.5223 45.1313C32.9261 43.8819 30.6517 44.0226 29.253 45.4894L29.2455 45.4969C27.2798 47.5582 26.1836 50.2976 26.1836 53.1457V71.1357C26.1836 82.925 35.8292 92.5706 47.6192 92.5706C59.4086 92.5706 69.0548 82.9244 69.0548 71.1357V53.1463C69.0542 50.2982 67.9573 47.5588 65.9917 45.4976Z" fill="#F5F5F5"/>
<path d="M70.4294 54.791C69.9613 54.791 69.5025 54.8304 69.0538 54.8998V71.1272C69.0538 71.6104 69.0319 72.0891 69 72.5647C69.4669 72.6397 69.9419 72.6897 70.4294 72.6897C75.3719 72.6897 79.3787 68.6829 79.3787 63.7404C79.3787 58.7979 75.3725 54.791 70.4294 54.791Z" fill="#F5F5F5"/>
<path d="M26.1765 71.1279V54.8998C25.7278 54.8304 25.2691 54.791 24.8009 54.791C19.8584 54.791 15.8516 58.7979 15.8516 63.7404C15.8516 68.6829 19.8584 72.6897 24.8009 72.6897C25.2884 72.6897 25.7641 72.6397 26.2303 72.5647C26.1991 72.0891 26.1765 71.611 26.1765 71.1279Z" fill="#F5F5F5"/>
<path d="M68.972 36.5083C68.2539 36.5083 67.632 35.9545 67.622 35.237C67.4576 23.2927 53.8176 21.0489 40.2345 23.3945C28.7183 25.3833 20.3008 35.3701 20.3008 47.057V56.0182C21.6252 55.2439 23.1608 54.7932 24.8058 54.7932C25.2739 54.7932 25.7326 54.8326 26.1814 54.902V53.1401C26.1814 50.292 27.2776 47.5533 29.2433 45.4914L29.2508 45.4839C30.6495 44.017 32.9239 43.877 34.5201 45.1258C37.057 47.1114 41.4514 49.5745 47.6401 49.5745C53.8139 49.5745 58.1851 47.1233 60.7114 45.1408C62.3089 43.8864 64.5882 44.022 65.9895 45.492C67.9551 47.5533 69.0514 50.2926 69.0514 53.1407V54.9026C69.5001 54.8332 69.9589 54.7939 70.427 54.7939C72.0913 54.7939 73.6445 55.2564 74.9795 56.0482V48.6889C74.9795 37.9939 71.1176 36.5083 68.972 36.5083Z" fill="#525252"/>
<path d="M93.2335 7.27613C85.1329 7.72175 78.3779 14.1105 77.5229 22.178C76.8073 28.9261 80.1098 34.9536 85.3241 38.208C86.386 38.8711 87.0004 40.063 87.0004 41.3148V44.153C87.0004 45.9805 88.4823 47.4623 90.3104 47.4623H98.0529C99.881 47.4623 101.363 45.9805 101.363 44.153V41.3155C101.363 40.0655 101.974 38.8723 103.035 38.2105C107.776 35.2536 110.937 30.0042 110.937 24.0049C110.937 14.4374 102.917 6.743 93.2335 7.27613Z" fill="url(#paint2_linear_1356_140)"/>
<path d="M98.0498 47.4594H90.3073C89.6111 47.4594 88.9667 47.2425 88.4336 46.875V51.0231C88.4336 52.4644 89.4767 53.7056 90.9011 53.9256C91.9692 54.0906 93.0636 54.1769 94.1786 54.1769C95.2936 54.1769 96.3873 54.0906 97.4561 53.9256C98.8805 53.7056 99.9236 52.4644 99.9236 51.0231V46.8756C99.3905 47.2425 98.7461 47.4594 98.0498 47.4594Z" fill="#171717"/>
<path d="M14.3717 151.125H17.926V151.099C16.6417 150.969 15.6348 149.896 15.6348 148.577V141.732H3.15293L2.32793 155.954C2.25293 157.302 3.32542 158.436 4.67605 158.436H17.926V158.428C14.956 158.342 12.5742 155.914 12.5742 152.923C12.5742 151.93 13.3785 151.125 14.3717 151.125Z" fill="#F5F5F5"/>
<path d="M92.0823 141.732H79.5998V148.577C79.5998 149.896 78.5936 150.969 77.3086 151.099V151.125H80.863C81.8561 151.125 82.6611 151.93 82.6611 152.923C82.6611 155.914 80.2786 158.342 77.3092 158.428V158.436H90.5592C91.9092 158.436 92.9823 157.302 92.9073 155.954L92.0823 141.732Z" fill="#F5F5F5"/>
<path d="M77.0452 103.199H18.1803C16.7734 103.199 15.6328 104.34 15.6328 105.747V148.579C15.6328 149.985 16.7734 151.126 18.1803 151.126H77.0452C78.4521 151.126 79.5927 149.985 79.5927 148.579V105.747C79.5927 104.34 78.4521 103.199 77.0452 103.199Z" fill="#737373"/>
<path d="M80.8598 151.125H14.3723C13.3792 151.125 12.5742 151.93 12.5742 152.923C12.5742 155.968 15.0423 158.436 18.0873 158.436H77.1435C80.1885 158.436 82.6566 155.968 82.6566 152.923C82.6573 151.93 81.8523 151.125 80.8598 151.125Z" fill="#A3A3A3"/>
<path d="M76.7819 3.88109C74.8081 3.52984 73.2737 1.99484 72.8787 0.0660937C72.8787 -0.0220312 72.7031 -0.0220312 72.7031 0.0660937C72.3087 1.99547 70.7737 3.53046 68.8 3.88109C68.7125 3.88109 68.7125 4.01234 68.8 4.05609C70.7737 4.40734 72.3081 5.94234 72.7031 7.87108C72.7031 7.95921 72.8787 7.95921 72.8787 7.87108C73.2731 5.94171 74.8081 4.40671 76.7819 4.05609C76.8694 4.01234 76.8694 3.88109 76.7819 3.88109Z" fill="#F25118"/>
<path d="M10.7266 44.8711H9.28905V43.4336C9.28905 42.3711 8.41405 41.4336 7.28905 41.4336C6.16406 41.4336 5.28906 42.3086 5.28906 43.4336V44.8711H3.85156C2.78906 44.8711 1.85156 45.7461 1.85156 46.8711C1.85156 47.9961 2.72656 48.8711 3.85156 48.8711H5.28906V50.3086C5.28906 51.3711 6.16406 52.3086 7.28905 52.3086C8.41405 52.3086 9.28905 51.4336 9.28905 50.3086V48.8711H10.7266C11.789 48.8711 12.7265 47.9961 12.7265 46.8711C12.7265 45.7461 11.8515 44.8711 10.7266 44.8711Z" fill="url(#paint3_linear_1356_140)"/>
<path d="M2.125 63.541C0.951249 63.541 0 64.4923 0 65.666C0 66.8391 0.951249 67.791 2.125 67.791C3.29875 67.791 4.25 66.8398 4.25 65.666C4.25 64.4929 3.29875 63.541 2.125 63.541Z" fill="url(#paint4_linear_1356_140)"/>
<path d="M103.375 110.34C102.201 110.34 101.25 111.291 101.25 112.465C101.25 113.639 102.201 114.59 103.375 114.59C104.549 114.59 105.5 113.639 105.5 112.465C105.5 111.291 104.549 110.34 103.375 110.34Z" fill="url(#paint5_linear_1356_140)"/>
<path d="M100.25 97.8398C97.4375 97.3398 95.25 95.1523 94.6875 92.4023C94.6875 92.2773 94.4375 92.2773 94.4375 92.4023C93.875 95.1523 91.6875 97.3398 88.875 97.8398C88.75 97.9023 88.75 98.0898 88.875 98.0898C91.6875 98.5898 93.875 100.777 94.4375 103.527C94.4375 103.652 94.6875 103.652 94.6875 103.527C95.25 100.777 97.4375 98.5898 100.25 98.0898C100.375 98.0898 100.375 97.9023 100.25 97.8398Z" fill="url(#paint6_linear_1356_140)"/>
<path d="M18.091 156.876H4.6798C4.38418 156.876 4.19418 156.722 4.1073 156.629C4.0198 156.538 3.87605 156.338 3.8923 156.046L6.2623 115.175C6.43105 112.145 8.52105 109.612 11.4642 108.871L15.786 107.784C16.6229 107.573 17.1304 106.724 16.9198 105.887C16.7085 105.05 15.8598 104.547 15.0229 104.753L10.701 105.841C6.4248 106.918 3.38668 110.598 3.14168 114.998L0.77168 155.869C0.711681 156.939 1.09981 157.998 1.83605 158.776C2.57168 159.554 3.60793 160.001 4.67918 160.001H18.0904C18.9535 160.001 19.6529 159.301 19.6529 158.438C19.6529 157.575 18.9542 156.876 18.091 156.876Z" fill="black"/>
<path d="M37.7448 89.0156C36.8817 89.0156 36.1823 89.715 36.1823 90.5781V93.625C36.1823 95.8662 34.9335 97.8744 32.9235 98.8656L27.0398 101.767C26.266 102.148 25.9479 103.085 26.3292 103.859C26.6017 104.411 27.1554 104.732 27.7317 104.732C27.9635 104.732 28.1992 104.68 28.4217 104.57L34.3054 101.669C37.391 100.147 39.3073 97.0656 39.3073 93.6256V90.5787C39.3073 89.715 38.6073 89.0156 37.7448 89.0156Z" fill="black"/>
<path d="M68.2011 101.762L62.3173 98.8609C60.3073 97.8697 59.0586 95.8616 59.0586 93.6203V90.4297C59.0586 89.5666 58.3592 88.8672 57.4961 88.8672C56.633 88.8672 55.9336 89.5666 55.9336 90.4297V93.6203C55.9336 97.0603 57.8498 100.142 60.9355 101.663L66.8192 104.565C67.0411 104.675 67.2767 104.727 67.5092 104.727C68.0855 104.727 68.6398 104.406 68.9117 103.854C69.293 103.081 68.9748 102.144 68.2011 101.762Z" fill="black"/>
<path d="M94.4645 155.868L92.0945 115.004C91.8495 110.6 88.8114 106.919 84.5351 105.843L80.3795 104.797C79.5414 104.589 78.6939 105.095 78.4827 105.93C78.272 106.767 78.7802 107.616 79.6164 107.827L83.772 108.873C86.7151 109.614 88.8058 112.147 88.9739 115.181L91.3439 156.045C91.3601 156.34 91.2164 156.539 91.1295 156.631C91.042 156.723 90.852 156.878 90.5558 156.878H77.1445C76.2814 156.878 75.582 157.577 75.582 158.44C75.582 159.303 76.2814 160.003 77.1445 160.003H90.5558C91.627 160.003 92.6633 159.556 93.3995 158.778C94.1358 158 94.5245 156.941 94.4645 155.868Z" fill="black"/>
<path d="M67.1184 44.4091C65.1628 42.3591 61.9928 42.1428 59.7446 43.9072C57.3615 45.7778 53.3272 48.0078 47.6384 48.0078C41.9378 48.0078 37.8809 45.7697 35.4816 43.8916C33.2359 42.1335 30.0716 42.3541 28.1116 44.4091C25.8584 46.771 24.6172 49.8703 24.6172 53.1359V71.1259C24.6172 83.8072 34.9341 94.124 47.6153 94.124C60.2959 94.124 70.6128 83.8072 70.6128 71.1259V53.1353C70.6128 49.8703 69.3721 46.771 67.1184 44.4091ZM67.4878 71.1259C67.4878 82.084 58.5728 90.999 47.6147 90.999C36.6572 90.999 27.7422 82.084 27.7422 71.1259V53.1353C27.7422 50.6766 28.6759 48.3441 30.3803 46.5585C30.8366 46.0791 31.4497 45.8353 32.0703 45.8353C32.5884 45.8353 33.1128 46.0053 33.5553 46.3522C36.3422 48.5328 41.0472 51.1322 47.6384 51.1322C54.2197 51.1322 58.904 48.5403 61.6746 46.3653C62.6484 45.5991 64.0171 45.6835 64.8571 46.5653C66.5534 48.3441 67.4878 50.6766 67.4878 53.1353V71.1259Z" fill="black"/>
<path d="M70.42 53.2324C70.0506 53.2324 69.6737 53.253 69.2994 53.2943C68.4413 53.388 67.8219 54.1599 67.9156 55.0174C68.0094 55.8749 68.7837 56.4905 69.6387 56.4012C69.9012 56.3724 70.1644 56.358 70.42 56.358C74.4937 56.358 77.8069 59.6718 77.8069 63.7449C77.8069 67.818 74.4931 71.1312 70.42 71.1312C70.1787 71.1312 69.9275 71.1162 69.6519 71.0843C68.7919 70.9837 68.02 71.6024 67.9219 72.4599C67.8238 73.3174 68.44 74.0912 69.2975 74.1899C69.6925 74.2343 70.0594 74.2561 70.42 74.2561C76.2162 74.2561 80.9319 69.5405 80.9319 63.7449C80.9325 57.948 76.2169 53.2324 70.42 53.2324Z" fill="black"/>
<path d="M24.8048 56.3574C25.0723 56.3574 25.3492 56.3737 25.628 56.4055C26.4892 56.513 27.2605 55.8899 27.3592 55.0324C27.458 54.1749 26.843 53.3999 25.9861 53.3012C25.5886 53.2555 25.1917 53.2324 24.8048 53.2324C19.0086 53.2324 14.293 57.948 14.293 63.7443C14.293 69.5399 19.0086 74.2555 24.8048 74.2555C25.1505 74.2555 25.498 74.2355 25.8686 74.1949C26.7267 74.1005 27.3448 73.328 27.2511 72.4705C27.1567 71.613 26.3867 71.0018 25.5267 71.088C25.2711 71.1168 25.0348 71.1299 24.8048 71.1299C20.7311 71.1299 17.418 67.8162 17.418 63.7437C17.418 59.6712 20.7317 56.3574 24.8048 56.3574Z" fill="black"/>
<path d="M54.7396 75.5896C54.0784 75.0359 53.0927 75.1215 52.5384 75.7834C51.5252 76.9927 49.8021 77.714 47.9284 77.714C46.0546 77.714 44.3315 76.9927 43.3184 75.7834C42.764 75.1221 41.779 75.0359 41.1171 75.5896C40.4559 76.144 40.3696 77.1296 40.9234 77.7908C42.5234 79.699 45.1415 80.8383 47.9284 80.8383C50.7152 80.8383 53.3334 79.699 54.9334 77.7908C55.4871 77.1296 55.4009 76.144 54.7396 75.5896Z" fill="black"/>
<path d="M57.6027 67.6096C59.1932 67.6096 60.4827 66.3202 60.4827 64.7296C60.4827 63.139 59.1932 61.8496 57.6027 61.8496C56.0121 61.8496 54.7227 63.139 54.7227 64.7296C54.7227 66.3202 56.0121 67.6096 57.6027 67.6096Z" fill="black"/>
<path d="M38.2628 67.6096C39.8534 67.6096 41.1428 66.3202 41.1428 64.7296C41.1428 63.139 39.8534 61.8496 38.2628 61.8496C36.6722 61.8496 35.3828 63.139 35.3828 64.7296C35.3828 66.3202 36.6722 67.6096 38.2628 67.6096Z" fill="black"/>
<path d="M69.1828 34.9465C69.0659 30.9308 67.5553 27.6908 64.6909 25.3115C59.7946 21.2458 50.7853 19.9859 39.9722 21.8521C27.6703 23.9771 18.7422 34.5758 18.7422 47.0546V55.6596C18.7422 56.5227 19.4416 57.2221 20.3047 57.2221C21.1678 57.2221 21.8672 56.5227 21.8672 55.6596V47.0546C21.8672 36.1008 29.7053 26.7971 40.504 24.9321C50.414 23.2202 58.5021 24.2346 62.694 27.7158C64.9171 29.5621 66.019 32.0283 66.0634 35.2571C66.0859 36.8071 67.3928 38.0683 68.9759 38.0683C71.8015 38.0683 73.4215 41.9383 73.4215 48.6864V55.6489C73.4215 56.5121 74.1209 57.2114 74.984 57.2114C75.8471 57.2114 76.5465 56.5121 76.5465 55.6489V48.6864C76.5477 37.0152 72.029 35.0352 69.1828 34.9465Z" fill="black"/>
<path d="M51.5576 127.5H43.5195C42.6564 127.5 41.957 128.199 41.957 129.062C41.957 129.926 42.6564 130.625 43.5195 130.625H51.5576C52.4208 130.625 53.1201 129.926 53.1201 129.062C53.1201 128.199 52.4208 127.5 51.5576 127.5Z" fill="black"/>
<path d="M106.763 10.6973C103.071 7.20289 98.2313 5.42726 93.1395 5.71351C84.2795 6.20039 76.8945 13.2073 75.9607 22.011C75.2139 29.0691 78.4807 35.7816 84.4895 39.531C85.0695 39.8929 85.4301 40.576 85.4301 41.3128V44.1503C85.4301 46.8372 87.6157 49.0228 90.3026 49.0228H98.0451C100.732 49.0228 102.918 46.8372 102.918 44.1503V41.3128C102.918 40.576 103.276 39.8941 103.854 39.5341C109.262 36.161 112.491 30.3541 112.491 24.0022C112.491 18.9191 110.456 14.1935 106.763 10.6973ZM102.199 36.8835C100.714 37.8091 99.7913 39.5066 99.7913 41.3135V44.151C99.7913 45.1147 99.0076 45.8985 98.0438 45.8985H90.3014C89.3376 45.8985 88.5539 45.1147 88.5539 44.151V41.3135C88.5539 39.5072 87.6295 37.8091 86.1426 36.8804C81.1582 33.7697 78.447 28.1985 79.0682 22.341C79.842 15.0448 85.9651 9.23789 93.3114 8.83414C93.602 8.81851 93.892 8.81039 94.1801 8.81039C98.0863 8.81039 101.764 10.2685 104.614 12.9666C107.678 15.8673 109.366 19.786 109.366 24.0029C109.366 29.2691 106.687 34.0841 102.199 36.8835Z" fill="black"/>
<path d="M99.9197 45.8906C99.0566 45.8906 98.3572 46.59 98.3572 47.4531V51.02C98.3572 51.6931 97.8653 52.2775 97.214 52.3781C95.2078 52.6869 93.1422 52.6869 91.1359 52.3781C90.4841 52.2775 89.9922 51.6931 89.9922 51.02V47.4531C89.9922 46.59 89.2928 45.8906 88.4297 45.8906C87.5666 45.8906 86.8672 46.59 86.8672 47.4531V51.02C86.8672 53.2206 88.4966 55.1319 90.6591 55.4662C91.8184 55.645 93.0016 55.7362 94.1741 55.7362C95.3472 55.7362 96.5303 55.645 97.6903 55.4662C99.8522 55.1319 101.482 53.22 101.482 51.02V47.4531C101.482 46.59 100.783 45.8906 99.9197 45.8906Z" fill="black"/>
<path d="M95.152 35.0297L91.0977 31.8078V23.1797C91.0977 22.3166 90.3983 21.6172 89.5352 21.6172C88.672 21.6172 87.9727 22.3166 87.9727 23.1797V32.5615C87.9727 33.0384 88.1902 33.4878 88.5627 33.7847L92.617 37.0065V46.0672C92.617 46.9303 93.3164 47.6297 94.1795 47.6297C95.0426 47.6297 95.742 46.9303 95.742 46.0672V36.2528C95.742 35.7759 95.5251 35.3259 95.152 35.0297Z" fill="black"/>
<path d="M98.824 21.6172C97.9608 21.6172 97.2615 22.3166 97.2615 23.1797V31.8072L93.274 34.9759C92.5984 35.5122 92.4859 36.4959 93.0234 37.1715C93.3315 37.5597 93.7877 37.7615 94.2477 37.7615C94.5884 37.7615 94.9315 37.6503 95.219 37.4222L99.7965 33.7847C100.17 33.4884 100.386 33.0384 100.386 32.5615V23.1797C100.386 22.3166 99.6871 21.6172 98.824 21.6172Z" fill="black"/>
<path d="M100.738 23.6504H87.6133C86.7502 23.6504 86.0508 24.3498 86.0508 25.2129C86.0508 26.076 86.7502 26.7754 87.6133 26.7754H100.738C101.601 26.7754 102.3 26.076 102.3 25.2129C102.3 24.3498 101.601 23.6504 100.738 23.6504Z" fill="black"/>
<path d="M120.43 22.7324H117.305C116.442 22.7324 115.742 23.4318 115.742 24.2949C115.742 25.158 116.442 25.8574 117.305 25.8574H120.43C121.293 25.8574 121.992 25.158 121.992 24.2949C121.992 23.4318 121.293 22.7324 120.43 22.7324Z" fill="black"/>
<path d="M118.263 10.3888C117.832 9.64134 116.874 9.38572 116.129 9.81697L113.422 11.3795C112.675 11.8107 112.419 12.7663 112.85 13.5138C113.139 14.0151 113.665 14.2951 114.204 14.2951C114.47 14.2951 114.738 14.2282 114.984 14.0857L117.691 12.5232C118.439 12.092 118.695 11.1363 118.263 10.3888Z" fill="black"/>
<path d="M108.082 0.209266C107.336 -0.221358 106.379 0.0336413 105.948 0.78114L104.385 3.48739C103.954 4.23426 104.21 5.19051 104.957 5.62176C105.203 5.76426 105.471 5.83113 105.737 5.83113C106.276 5.83113 106.802 5.55114 107.091 5.04989L108.654 2.34364C109.086 1.59676 108.83 0.640516 108.082 0.209266Z" fill="black"/>
<path d="M15.1278 140.166H3.69531C2.83219 140.166 2.13281 140.865 2.13281 141.729C2.13281 142.592 2.83219 143.291 3.69531 143.291H15.1278C15.9909 143.291 16.6903 142.592 16.6903 141.729C16.6903 140.865 15.9909 140.166 15.1278 140.166Z" fill="black"/>
<path d="M91.5586 140.166H80.1523C79.2892 140.166 78.5898 140.865 78.5898 141.729C78.5898 142.592 79.2892 143.291 80.1523 143.291H91.5586C92.4217 143.291 93.1211 142.592 93.1211 141.729C93.1211 140.865 92.4217 140.166 91.5586 140.166Z" fill="black"/>
<path d="M77.0491 101.631H18.1842C15.918 101.631 14.0742 103.475 14.0742 105.741V148.573C14.0742 150.839 15.918 152.683 18.1842 152.683H77.0498C79.316 152.683 81.1598 150.839 81.1598 148.573V105.741C81.1591 103.475 79.3154 101.631 77.0491 101.631ZM78.0341 148.573C78.0341 149.116 77.5923 149.558 77.0491 149.558H18.1842C17.6411 149.558 17.1992 149.116 17.1992 148.573V105.741C17.1992 105.198 17.6411 104.756 18.1842 104.756H77.0498C77.5929 104.756 78.0348 105.198 78.0348 105.741L78.0341 148.573Z" fill="black"/>
<path d="M80.8559 149.566H14.3684C12.5153 149.566 11.0078 151.074 11.0078 152.927C11.0078 156.828 14.1822 160.003 18.0841 160.003H77.1396C81.0409 160.003 84.2152 156.828 84.2152 152.927C84.2159 151.074 82.7084 149.566 80.8559 149.566ZM77.1402 156.878H18.0841C15.9053 156.878 14.1328 155.105 14.1328 152.927C14.1328 152.797 14.2384 152.691 14.3684 152.691H80.8559C80.9852 152.691 81.0909 152.797 81.0909 152.927C81.0909 155.105 79.3184 156.878 77.1402 156.878Z" fill="black"/>
<defs>
<linearGradient id="paint0_linear_1356_140" x1="2.32422" y1="106.207" x2="19.1084" y2="106.506" gradientUnits="userSpaceOnUse">
<stop stop-color="#F15613"/>
<stop offset="1" stop-color="#F27B13"/>
</linearGradient>
<linearGradient id="paint1_linear_1356_140" x1="77.0508" y1="106.207" x2="93.8349" y2="106.506" gradientUnits="userSpaceOnUse">
<stop stop-color="#F15613"/>
<stop offset="1" stop-color="#F27B13"/>
</linearGradient>
<linearGradient id="paint2_linear_1356_140" x1="77.4258" y1="7.25" x2="112.819" y2="8.98122" gradientUnits="userSpaceOnUse">
<stop stop-color="#F15613"/>
<stop offset="1" stop-color="#F27B13"/>
</linearGradient>
<linearGradient id="paint3_linear_1356_140" x1="1.85156" y1="41.4336" x2="13.3253" y2="42.107" gradientUnits="userSpaceOnUse">
<stop stop-color="#F15613"/>
<stop offset="1" stop-color="#F27B13"/>
</linearGradient>
<linearGradient id="paint4_linear_1356_140" x1="0" y1="63.541" x2="4.484" y2="63.8042" gradientUnits="userSpaceOnUse">
<stop stop-color="#F15613"/>
<stop offset="1" stop-color="#F27B13"/>
</linearGradient>
<linearGradient id="paint5_linear_1356_140" x1="101.25" y1="110.34" x2="105.734" y2="110.603" gradientUnits="userSpaceOnUse">
<stop stop-color="#F15613"/>
<stop offset="1" stop-color="#F27B13"/>
</linearGradient>
<linearGradient id="paint6_linear_1356_140" x1="88.7812" y1="92.3086" x2="100.978" y2="93.0403" gradientUnits="userSpaceOnUse">
<stop stop-color="#F15613"/>
<stop offset="1" stop-color="#F27B13"/>
</linearGradient>
</defs>
</svg>
