<svg width="1245" height="1000" viewBox="0 0 1245 1000" fill="none" xmlns="http://www.w3.org/2000/svg">
<path d="M532.5 9.49982L532.772 6.01043L532.5 9.49982ZM1196 396.999L1197.97 399.889L1196 396.999ZM991.5 999.5L1026.09 978.597L990.692 959.094L991.5 999.5ZM4.43865 86.9133C43.9069 60.6559 112.858 37.2201 203.657 22.8362C294.357 8.468 406.538 3.18159 532.228 12.9892L532.772 6.01043C406.586 -3.83594 293.852 1.46072 202.562 15.9224C111.371 30.3684 41.2598 54.0093 0.561346 81.0853L4.43865 86.9133ZM532.228 12.9892C704.756 26.4517 920.142 89.0673 1067.34 165.291C1141.05 203.46 1197.07 244.748 1222.35 284.535C1234.93 304.336 1239.69 323.439 1235.65 341.498C1231.6 359.584 1218.57 377.347 1194.03 394.108L1197.97 399.889C1223.4 382.522 1237.92 363.424 1242.48 343.027C1247.05 322.602 1241.48 301.599 1228.25 280.782C1201.92 239.334 1144.45 197.341 1070.56 159.075C922.538 82.4254 706.244 19.5465 532.772 6.01043L532.228 12.9892ZM1194.03 394.108C1128.51 438.856 1070.8 447.005 1017.04 436.795C963.035 426.537 912.795 397.719 862.281 367.862C811.983 338.132 761.376 307.342 707.312 294.177C652.974 280.946 595.218 285.515 530.64 326.035L534.36 331.965C597.282 292.485 653.089 288.179 705.656 300.979C758.499 313.846 808.142 343.993 858.719 373.888C909.08 403.655 960.34 433.15 1015.74 443.672C1071.39 454.243 1130.99 445.642 1197.97 399.889L1194.03 394.108ZM530.64 326.035C499.251 345.73 484.87 365.152 485.968 385.266C487.05 405.062 503.13 423.633 527.359 441.781C551.803 460.09 585.579 478.717 623.989 498.384C662.574 518.141 705.601 538.833 749.328 561.601C836.668 607.078 924.968 659.938 979.051 726.198C1006.04 759.265 1024.41 795.553 1029.96 835.832C1035.5 876.09 1028.27 920.639 1003.58 970.323L1009.85 973.438C1035.06 922.707 1042.65 876.745 1036.89 834.877C1031.13 793.03 1012.07 755.577 984.474 721.771C929.389 654.285 839.898 600.868 752.56 555.392C708.948 532.683 665.412 511.73 627.18 492.154C588.772 472.488 555.475 454.095 531.556 436.179C507.423 418.102 493.851 401.242 492.958 384.884C492.082 368.844 503.402 351.389 534.36 331.965L530.64 326.035Z" fill="url(#paint0_linear_1132_6616)"/>
<defs>
<linearGradient id="paint0_linear_1132_6616" x1="2.5" y1="4.48047" x2="1306.26" y2="99.694" gradientUnits="userSpaceOnUse">
<stop stop-color="#F15613"/>
<stop offset="1" stop-color="#F27B13"/>
</linearGradient>
</defs>
</svg>
